<svg width="1363" height="163" viewBox="0 0 1363 163" fill="none" xmlns="http://www.w3.org/2000/svg">
<path d="M0 15C0 6.71573 6.71573 0 15 0H37V163H15C6.71573 163 0 156.284 0 148V15Z" fill="#424242"/>
<rect width="1097" height="163" transform="translate(37)" fill="#F0F0F0"/>
<path d="M101.906 53.9219L94.3945 51.2383V48.0859L104.602 52.375V54.6367L101.906 53.9219ZM94.3945 56.1719L101.918 53.4297L104.602 52.7852V55.0352L94.3945 59.3242V56.1719ZM122.789 55.3398H126.293C126.223 56.4883 125.906 57.5078 125.344 58.3984C124.789 59.2891 124.012 59.9844 123.012 60.4844C122.02 60.9844 120.824 61.2344 119.426 61.2344C118.332 61.2344 117.352 61.0469 116.484 60.6719C115.617 60.2891 114.875 59.7422 114.258 59.0312C113.648 58.3203 113.184 57.4609 112.863 56.4531C112.543 55.4453 112.383 54.3164 112.383 53.0664V51.8828C112.383 50.6328 112.547 49.5039 112.875 48.4961C113.211 47.4805 113.688 46.6172 114.305 45.9062C114.93 45.1953 115.676 44.6484 116.543 44.2656C117.41 43.8828 118.379 43.6914 119.449 43.6914C120.871 43.6914 122.07 43.9492 123.047 44.4648C124.031 44.9805 124.793 45.6914 125.332 46.5977C125.879 47.5039 126.207 48.5352 126.316 49.6914H122.801C122.762 49.0039 122.625 48.4219 122.391 47.9453C122.156 47.4609 121.801 47.0977 121.324 46.8555C120.855 46.6055 120.23 46.4805 119.449 46.4805C118.863 46.4805 118.352 46.5898 117.914 46.8086C117.477 47.0273 117.109 47.3594 116.812 47.8047C116.516 48.25 116.293 48.8125 116.145 49.4922C116.004 50.1641 115.934 50.9531 115.934 51.8594V53.0664C115.934 53.9492 116 54.7266 116.133 55.3984C116.266 56.0625 116.469 56.625 116.742 57.0859C117.023 57.5391 117.383 57.8828 117.82 58.1172C118.266 58.3438 118.801 58.457 119.426 58.457C120.16 58.457 120.766 58.3398 121.242 58.1055C121.719 57.8711 122.082 57.5234 122.332 57.0625C122.59 56.6016 122.742 56.0273 122.789 55.3398ZM131.684 43V61H128.309V43H131.684ZM131.203 54.2148H130.277C130.285 53.332 130.402 52.5195 130.629 51.7773C130.855 51.0273 131.18 50.3789 131.602 49.832C132.023 49.2773 132.527 48.8477 133.113 48.543C133.707 48.2383 134.363 48.0859 135.082 48.0859C135.707 48.0859 136.273 48.1758 136.781 48.3555C137.297 48.5273 137.738 48.8086 138.105 49.1992C138.48 49.582 138.77 50.0859 138.973 50.7109C139.176 51.3359 139.277 52.0938 139.277 52.9844V61H135.879V52.9609C135.879 52.3984 135.797 51.957 135.633 51.6367C135.477 51.3086 135.246 51.0781 134.941 50.9453C134.645 50.8047 134.277 50.7344 133.84 50.7344C133.355 50.7344 132.941 50.8242 132.598 51.0039C132.262 51.1836 131.992 51.4336 131.789 51.7539C131.586 52.0664 131.438 52.4336 131.344 52.8555C131.25 53.2773 131.203 53.7305 131.203 54.2148ZM145.219 51.0859V61H141.844V48.3203H145.02L145.219 51.0859ZM149.039 48.2383L148.98 51.3672C148.816 51.3438 148.617 51.3242 148.383 51.3086C148.156 51.2852 147.949 51.2734 147.762 51.2734C147.285 51.2734 146.871 51.3359 146.52 51.4609C146.176 51.5781 145.887 51.7539 145.652 51.9883C145.426 52.2227 145.254 52.5078 145.137 52.8438C145.027 53.1797 144.965 53.5625 144.949 53.9922L144.27 53.7812C144.27 52.9609 144.352 52.207 144.516 51.5195C144.68 50.8242 144.918 50.2188 145.23 49.7031C145.551 49.1875 145.941 48.7891 146.402 48.5078C146.863 48.2266 147.391 48.0859 147.984 48.0859C148.172 48.0859 148.363 48.1016 148.559 48.1328C148.754 48.1562 148.914 48.1914 149.039 48.2383ZM149.742 54.7891V54.543C149.742 53.6133 149.875 52.7578 150.141 51.9766C150.406 51.1875 150.793 50.5039 151.301 49.9258C151.809 49.3477 152.434 48.8984 153.176 48.5781C153.918 48.25 154.77 48.0859 155.73 48.0859C156.691 48.0859 157.547 48.25 158.297 48.5781C159.047 48.8984 159.676 49.3477 160.184 49.9258C160.699 50.5039 161.09 51.1875 161.355 51.9766C161.621 52.7578 161.754 53.6133 161.754 54.543V54.7891C161.754 55.7109 161.621 56.5664 161.355 57.3555C161.09 58.1367 160.699 58.8203 160.184 59.4062C159.676 59.9844 159.051 60.4336 158.309 60.7539C157.566 61.0742 156.715 61.2344 155.754 61.2344C154.793 61.2344 153.938 61.0742 153.188 60.7539C152.445 60.4336 151.816 59.9844 151.301 59.4062C150.793 58.8203 150.406 58.1367 150.141 57.3555C149.875 56.5664 149.742 55.7109 149.742 54.7891ZM153.117 54.543V54.7891C153.117 55.3203 153.164 55.8164 153.258 56.2773C153.352 56.7383 153.5 57.1445 153.703 57.4961C153.914 57.8398 154.188 58.1094 154.523 58.3047C154.859 58.5 155.27 58.5977 155.754 58.5977C156.223 58.5977 156.625 58.5 156.961 58.3047C157.297 58.1094 157.566 57.8398 157.77 57.4961C157.973 57.1445 158.121 56.7383 158.215 56.2773C158.316 55.8164 158.367 55.3203 158.367 54.7891V54.543C158.367 54.0273 158.316 53.543 158.215 53.0898C158.121 52.6289 157.969 52.2227 157.758 51.8711C157.555 51.5117 157.285 51.2305 156.949 51.0273C156.613 50.8242 156.207 50.7227 155.73 50.7227C155.254 50.7227 154.848 50.8242 154.512 51.0273C154.184 51.2305 153.914 51.5117 153.703 51.8711C153.5 52.2227 153.352 52.6289 153.258 53.0898C153.164 53.543 153.117 54.0273 153.117 54.543ZM167.133 51.0273V61H163.758V48.3203H166.922L167.133 51.0273ZM166.641 54.2148H165.727C165.727 53.2773 165.848 52.4336 166.09 51.6836C166.332 50.9258 166.672 50.2812 167.109 49.75C167.547 49.2109 168.066 48.8008 168.668 48.5195C169.277 48.2305 169.957 48.0859 170.707 48.0859C171.301 48.0859 171.844 48.1719 172.336 48.3438C172.828 48.5156 173.25 48.7891 173.602 49.1641C173.961 49.5391 174.234 50.0352 174.422 50.6523C174.617 51.2695 174.715 52.0234 174.715 52.9141V61H171.316V52.9023C171.316 52.3398 171.238 51.9023 171.082 51.5898C170.926 51.2773 170.695 51.0586 170.391 50.9336C170.094 50.8008 169.727 50.7344 169.289 50.7344C168.836 50.7344 168.441 50.8242 168.105 51.0039C167.777 51.1836 167.504 51.4336 167.285 51.7539C167.074 52.0664 166.914 52.4336 166.805 52.8555C166.695 53.2773 166.641 53.7305 166.641 54.2148ZM176.742 54.7891V54.543C176.742 53.6133 176.875 52.7578 177.141 51.9766C177.406 51.1875 177.793 50.5039 178.301 49.9258C178.809 49.3477 179.434 48.8984 180.176 48.5781C180.918 48.25 181.77 48.0859 182.73 48.0859C183.691 48.0859 184.547 48.25 185.297 48.5781C186.047 48.8984 186.676 49.3477 187.184 49.9258C187.699 50.5039 188.09 51.1875 188.355 51.9766C188.621 52.7578 188.754 53.6133 188.754 54.543V54.7891C188.754 55.7109 188.621 56.5664 188.355 57.3555C188.09 58.1367 187.699 58.8203 187.184 59.4062C186.676 59.9844 186.051 60.4336 185.309 60.7539C184.566 61.0742 183.715 61.2344 182.754 61.2344C181.793 61.2344 180.938 61.0742 180.188 60.7539C179.445 60.4336 178.816 59.9844 178.301 59.4062C177.793 58.8203 177.406 58.1367 177.141 57.3555C176.875 56.5664 176.742 55.7109 176.742 54.7891ZM180.117 54.543V54.7891C180.117 55.3203 180.164 55.8164 180.258 56.2773C180.352 56.7383 180.5 57.1445 180.703 57.4961C180.914 57.8398 181.188 58.1094 181.523 58.3047C181.859 58.5 182.27 58.5977 182.754 58.5977C183.223 58.5977 183.625 58.5 183.961 58.3047C184.297 58.1094 184.566 57.8398 184.77 57.4961C184.973 57.1445 185.121 56.7383 185.215 56.2773C185.316 55.8164 185.367 55.3203 185.367 54.7891V54.543C185.367 54.0273 185.316 53.543 185.215 53.0898C185.121 52.6289 184.969 52.2227 184.758 51.8711C184.555 51.5117 184.285 51.2305 183.949 51.0273C183.613 50.8242 183.207 50.7227 182.73 50.7227C182.254 50.7227 181.848 50.8242 181.512 51.0273C181.184 51.2305 180.914 51.5117 180.703 51.8711C180.5 52.2227 180.352 52.6289 180.258 53.0898C180.164 53.543 180.117 54.0273 180.117 54.543ZM198.855 48.3203H201.914V60.5781C201.914 61.7344 201.656 62.7148 201.141 63.5195C200.633 64.332 199.922 64.9453 199.008 65.3594C198.094 65.7812 197.031 65.9922 195.82 65.9922C195.289 65.9922 194.727 65.9219 194.133 65.7812C193.547 65.6406 192.984 65.4219 192.445 65.125C191.914 64.8281 191.469 64.4531 191.109 64L192.598 62.0078C192.988 62.4609 193.441 62.8125 193.957 63.0625C194.473 63.3203 195.043 63.4492 195.668 63.4492C196.277 63.4492 196.793 63.3359 197.215 63.1094C197.637 62.8906 197.961 62.5664 198.188 62.1367C198.414 61.7148 198.527 61.2031 198.527 60.6016V51.25L198.855 48.3203ZM190.324 54.8125V54.5664C190.324 53.5977 190.441 52.7188 190.676 51.9297C190.918 51.1328 191.258 50.4492 191.695 49.8789C192.141 49.3086 192.68 48.8672 193.312 48.5547C193.945 48.2422 194.66 48.0859 195.457 48.0859C196.301 48.0859 197.008 48.2422 197.578 48.5547C198.148 48.8672 198.617 49.3125 198.984 49.8906C199.352 50.4609 199.637 51.1367 199.84 51.918C200.051 52.6914 200.215 53.5391 200.332 54.4609V55C200.215 55.8828 200.039 56.7031 199.805 57.4609C199.57 58.2188 199.262 58.8828 198.879 59.4531C198.496 60.0156 198.02 60.4531 197.449 60.7656C196.887 61.0781 196.215 61.2344 195.434 61.2344C194.652 61.2344 193.945 61.0742 193.312 60.7539C192.688 60.4336 192.152 59.9844 191.707 59.4062C191.262 58.8281 190.918 58.1484 190.676 57.3672C190.441 56.5859 190.324 55.7344 190.324 54.8125ZM193.699 54.5664V54.8125C193.699 55.3359 193.75 55.8242 193.852 56.2773C193.953 56.7305 194.109 57.1328 194.32 57.4844C194.539 57.8281 194.809 58.0977 195.129 58.293C195.457 58.4805 195.844 58.5742 196.289 58.5742C196.906 58.5742 197.41 58.4453 197.801 58.1875C198.191 57.9219 198.484 57.5586 198.68 57.0977C198.875 56.6367 198.988 56.1055 199.02 55.5039V53.9688C199.004 53.4766 198.938 53.0352 198.82 52.6445C198.703 52.2461 198.539 51.9062 198.328 51.625C198.117 51.3438 197.844 51.125 197.508 50.9688C197.172 50.8125 196.773 50.7344 196.312 50.7344C195.867 50.7344 195.48 50.8359 195.152 51.0391C194.832 51.2344 194.562 51.5039 194.344 51.8477C194.133 52.1914 193.973 52.5977 193.863 53.0664C193.754 53.5273 193.699 54.0273 193.699 54.5664ZM207.914 51.0859V61H204.539V48.3203H207.715L207.914 51.0859ZM211.734 48.2383L211.676 51.3672C211.512 51.3438 211.312 51.3242 211.078 51.3086C210.852 51.2852 210.645 51.2734 210.457 51.2734C209.98 51.2734 209.566 51.3359 209.215 51.4609C208.871 51.5781 208.582 51.7539 208.348 51.9883C208.121 52.2227 207.949 52.5078 207.832 52.8438C207.723 53.1797 207.66 53.5625 207.645 53.9922L206.965 53.7812C206.965 52.9609 207.047 52.207 207.211 51.5195C207.375 50.8242 207.613 50.2188 207.926 49.7031C208.246 49.1875 208.637 48.7891 209.098 48.5078C209.559 48.2266 210.086 48.0859 210.68 48.0859C210.867 48.0859 211.059 48.1016 211.254 48.1328C211.449 48.1562 211.609 48.1914 211.734 48.2383ZM219.773 58.1406V52.4922C219.773 52.0859 219.707 51.7383 219.574 51.4492C219.441 51.1523 219.234 50.9219 218.953 50.7578C218.68 50.5938 218.324 50.5117 217.887 50.5117C217.512 50.5117 217.188 50.5781 216.914 50.7109C216.641 50.8359 216.43 51.0195 216.281 51.2617C216.133 51.4961 216.059 51.7734 216.059 52.0938H212.684C212.684 51.5547 212.809 51.043 213.059 50.5586C213.309 50.0742 213.672 49.6484 214.148 49.2812C214.625 48.9062 215.191 48.6133 215.848 48.4023C216.512 48.1914 217.254 48.0859 218.074 48.0859C219.059 48.0859 219.934 48.25 220.699 48.5781C221.465 48.9062 222.066 49.3984 222.504 50.0547C222.949 50.7109 223.172 51.5312 223.172 52.5156V57.9414C223.172 58.6367 223.215 59.207 223.301 59.6523C223.387 60.0898 223.512 60.4727 223.676 60.8008V61H220.266C220.102 60.6562 219.977 60.2266 219.891 59.7109C219.812 59.1875 219.773 58.6641 219.773 58.1406ZM220.219 53.2773L220.242 55.1875H218.355C217.91 55.1875 217.523 55.2383 217.195 55.3398C216.867 55.4414 216.598 55.5859 216.387 55.7734C216.176 55.9531 216.02 56.1641 215.918 56.4062C215.824 56.6484 215.777 56.9141 215.777 57.2031C215.777 57.4922 215.844 57.7539 215.977 57.9883C216.109 58.2148 216.301 58.3945 216.551 58.5273C216.801 58.6523 217.094 58.7148 217.43 58.7148C217.938 58.7148 218.379 58.6133 218.754 58.4102C219.129 58.207 219.418 57.957 219.621 57.6602C219.832 57.3633 219.941 57.082 219.949 56.8164L220.84 58.2461C220.715 58.5664 220.543 58.8984 220.324 59.2422C220.113 59.5859 219.844 59.9102 219.516 60.2148C219.188 60.5117 218.793 60.7578 218.332 60.9531C217.871 61.1406 217.324 61.2344 216.691 61.2344C215.887 61.2344 215.156 61.0742 214.5 60.7539C213.852 60.4258 213.336 59.9766 212.953 59.4062C212.578 58.8281 212.391 58.1719 212.391 57.4375C212.391 56.7734 212.516 56.1836 212.766 55.668C213.016 55.1523 213.383 54.7188 213.867 54.3672C214.359 54.0078 214.973 53.7383 215.707 53.5586C216.441 53.3711 217.293 53.2773 218.262 53.2773H220.219ZM229.148 50.7578V65.875H225.773V48.3203H228.902L229.148 50.7578ZM237.176 54.5195V54.7656C237.176 55.6875 237.066 56.543 236.848 57.332C236.637 58.1211 236.324 58.8086 235.91 59.3945C235.496 59.9727 234.98 60.4258 234.363 60.7539C233.754 61.0742 233.051 61.2344 232.254 61.2344C231.48 61.2344 230.809 61.0781 230.238 60.7656C229.668 60.4531 229.188 60.0156 228.797 59.4531C228.414 58.8828 228.105 58.2227 227.871 57.4727C227.637 56.7227 227.457 55.918 227.332 55.0586V54.4141C227.457 53.4922 227.637 52.6484 227.871 51.8828C228.105 51.1094 228.414 50.4414 228.797 49.8789C229.188 49.3086 229.664 48.8672 230.227 48.5547C230.797 48.2422 231.465 48.0859 232.23 48.0859C233.035 48.0859 233.742 48.2383 234.352 48.543C234.969 48.8477 235.484 49.2852 235.898 49.8555C236.32 50.4258 236.637 51.1055 236.848 51.8945C237.066 52.6836 237.176 53.5586 237.176 54.5195ZM233.789 54.7656V54.5195C233.789 53.9805 233.742 53.4844 233.648 53.0312C233.562 52.5703 233.422 52.168 233.227 51.8242C233.039 51.4805 232.789 51.2148 232.477 51.0273C232.172 50.832 231.801 50.7344 231.363 50.7344C230.902 50.7344 230.508 50.8086 230.18 50.957C229.859 51.1055 229.598 51.3203 229.395 51.6016C229.191 51.8828 229.039 52.2188 228.938 52.6094C228.836 53 228.773 53.4414 228.75 53.9336V55.5625C228.789 56.1406 228.898 56.6602 229.078 57.1211C229.258 57.5742 229.535 57.9336 229.91 58.1992C230.285 58.4648 230.777 58.5977 231.387 58.5977C231.832 58.5977 232.207 58.5 232.512 58.3047C232.816 58.1016 233.062 57.8242 233.25 57.4727C233.445 57.1211 233.582 56.7148 233.66 56.2539C233.746 55.793 233.789 55.2969 233.789 54.7656ZM242.566 43V61H239.191V43H242.566ZM242.086 54.2148H241.16C241.168 53.332 241.285 52.5195 241.512 51.7773C241.738 51.0273 242.062 50.3789 242.484 49.832C242.906 49.2773 243.41 48.8477 243.996 48.543C244.59 48.2383 245.246 48.0859 245.965 48.0859C246.59 48.0859 247.156 48.1758 247.664 48.3555C248.18 48.5273 248.621 48.8086 248.988 49.1992C249.363 49.582 249.652 50.0859 249.855 50.7109C250.059 51.3359 250.16 52.0938 250.16 52.9844V61H246.762V52.9609C246.762 52.3984 246.68 51.957 246.516 51.6367C246.359 51.3086 246.129 51.0781 245.824 50.9453C245.527 50.8047 245.16 50.7344 244.723 50.7344C244.238 50.7344 243.824 50.8242 243.48 51.0039C243.145 51.1836 242.875 51.4336 242.672 51.7539C242.469 52.0664 242.32 52.4336 242.227 52.8555C242.133 53.2773 242.086 53.7305 242.086 54.2148Z" fill="#888888"/>
<path d="M114.117 84.875H122.344V107.164C122.344 109.82 121.789 112.07 120.68 113.914C119.57 115.742 118.016 117.125 116.016 118.062C114.016 119 111.664 119.469 108.961 119.469C106.289 119.469 103.938 119 101.906 118.062C99.8906 117.125 98.3125 115.742 97.1719 113.914C96.0469 112.07 95.4844 109.82 95.4844 107.164V84.875H103.734V107.164C103.734 108.57 103.938 109.719 104.344 110.609C104.75 111.484 105.344 112.125 106.125 112.531C106.906 112.938 107.852 113.141 108.961 113.141C110.086 113.141 111.031 112.938 111.797 112.531C112.562 112.125 113.141 111.484 113.531 110.609C113.922 109.719 114.117 108.57 114.117 107.164V84.875ZM134.906 99.0547V119H127.008V93.6406H134.414L134.906 99.0547ZM133.969 105.453L132.117 105.5C132.117 103.562 132.352 101.836 132.82 100.32C133.289 98.7891 133.953 97.4922 134.812 96.4297C135.672 95.3672 136.695 94.5625 137.883 94.0156C139.086 93.4531 140.422 93.1719 141.891 93.1719C143.062 93.1719 144.133 93.3438 145.102 93.6875C146.086 94.0312 146.93 94.5859 147.633 95.3516C148.352 96.1172 148.898 97.1328 149.273 98.3984C149.664 99.6484 149.859 101.195 149.859 103.039V119H141.914V103.016C141.914 102 141.773 101.227 141.492 100.695C141.211 100.148 140.805 99.7734 140.273 99.5703C139.742 99.3672 139.094 99.2656 138.328 99.2656C137.516 99.2656 136.828 99.4219 136.266 99.7344C135.703 100.047 135.25 100.484 134.906 101.047C134.578 101.594 134.336 102.242 134.18 102.992C134.039 103.742 133.969 104.562 133.969 105.453ZM162.586 93.6406V119H154.664V93.6406H162.586ZM154.195 87.1016C154.195 85.9766 154.602 85.0547 155.414 84.3359C156.227 83.6172 157.281 83.2578 158.578 83.2578C159.875 83.2578 160.93 83.6172 161.742 84.3359C162.555 85.0547 162.961 85.9766 162.961 87.1016C162.961 88.2266 162.555 89.1484 161.742 89.8672C160.93 90.5859 159.875 90.9453 158.578 90.9453C157.281 90.9453 156.227 90.5859 155.414 89.8672C154.602 89.1484 154.195 88.2266 154.195 87.1016ZM180.82 93.6406V99.125H165.539V93.6406H180.82ZM168.75 87.3359H176.648V110.727C176.648 111.398 176.727 111.922 176.883 112.297C177.039 112.656 177.305 112.914 177.68 113.07C178.07 113.211 178.586 113.281 179.227 113.281C179.68 113.281 180.055 113.273 180.352 113.258C180.648 113.227 180.93 113.188 181.195 113.141V118.789C180.523 119.008 179.82 119.172 179.086 119.281C178.352 119.406 177.57 119.469 176.742 119.469C175.055 119.469 173.609 119.203 172.406 118.672C171.219 118.141 170.312 117.305 169.688 116.164C169.062 115.023 168.75 113.539 168.75 111.711V87.3359ZM211.406 84.875V119H203.18V84.875H211.406ZM221.672 84.875V91.2266H193.148V84.875H221.672ZM234.961 119.469C232.898 119.469 231.055 119.148 229.43 118.508C227.805 117.852 226.43 116.953 225.305 115.812C224.195 114.672 223.344 113.359 222.75 111.875C222.172 110.391 221.883 108.82 221.883 107.164V106.273C221.883 104.414 222.141 102.695 222.656 101.117C223.172 99.5234 223.938 98.1328 224.953 96.9453C225.969 95.7578 227.242 94.8359 228.773 94.1797C230.305 93.5078 232.086 93.1719 234.117 93.1719C235.914 93.1719 237.523 93.4609 238.945 94.0391C240.367 94.6172 241.57 95.4453 242.555 96.5234C243.555 97.6016 244.312 98.9062 244.828 100.438C245.359 101.969 245.625 103.688 245.625 105.594V108.805H224.906V103.859H237.914V103.25C237.93 102.406 237.781 101.688 237.469 101.094C237.172 100.5 236.734 100.047 236.156 99.7344C235.578 99.4219 234.875 99.2656 234.047 99.2656C233.188 99.2656 232.477 99.4531 231.914 99.8281C231.367 100.203 230.938 100.719 230.625 101.375C230.328 102.016 230.117 102.758 229.992 103.602C229.867 104.445 229.805 105.336 229.805 106.273V107.164C229.805 108.102 229.93 108.953 230.18 109.719C230.445 110.484 230.82 111.141 231.305 111.688C231.805 112.219 232.398 112.633 233.086 112.93C233.789 113.227 234.586 113.375 235.477 113.375C236.555 113.375 237.617 113.172 238.664 112.766C239.711 112.359 240.609 111.688 241.359 110.75L244.945 115.016C244.43 115.75 243.695 116.461 242.742 117.148C241.805 117.836 240.68 118.398 239.367 118.836C238.055 119.258 236.586 119.469 234.961 119.469ZM262.125 111.875C262.125 111.438 261.977 111.062 261.68 110.75C261.398 110.422 260.898 110.125 260.18 109.859C259.461 109.578 258.453 109.297 257.156 109.016C255.922 108.75 254.758 108.398 253.664 107.961C252.586 107.523 251.641 106.992 250.828 106.367C250.016 105.742 249.375 105 248.906 104.141C248.453 103.281 248.227 102.297 248.227 101.188C248.227 100.109 248.453 99.0938 248.906 98.1406C249.375 97.1719 250.055 96.3203 250.945 95.5859C251.852 94.8359 252.953 94.25 254.25 93.8281C255.547 93.3906 257.023 93.1719 258.68 93.1719C260.961 93.1719 262.93 93.5234 264.586 94.2266C266.242 94.9141 267.516 95.8828 268.406 97.1328C269.312 98.3672 269.766 99.7969 269.766 101.422H261.867C261.867 100.781 261.758 100.234 261.539 99.7812C261.336 99.3281 261 98.9844 260.531 98.75C260.062 98.5 259.438 98.375 258.656 98.375C258.109 98.375 257.609 98.4766 257.156 98.6797C256.719 98.8828 256.367 99.1641 256.102 99.5234C255.836 99.8828 255.703 100.305 255.703 100.789C255.703 101.133 255.781 101.445 255.938 101.727C256.109 101.992 256.367 102.242 256.711 102.477C257.055 102.695 257.492 102.898 258.023 103.086C258.555 103.258 259.195 103.414 259.945 103.555C261.648 103.867 263.242 104.312 264.727 104.891C266.211 105.469 267.414 106.289 268.336 107.352C269.273 108.414 269.742 109.844 269.742 111.641C269.742 112.766 269.484 113.805 268.969 114.758C268.453 115.695 267.711 116.523 266.742 117.242C265.773 117.945 264.609 118.492 263.25 118.883C261.891 119.273 260.359 119.469 258.656 119.469C256.234 119.469 254.188 119.039 252.516 118.18C250.844 117.305 249.578 116.211 248.719 114.898C247.875 113.57 247.453 112.227 247.453 110.867H254.812C254.844 111.648 255.031 112.289 255.375 112.789C255.734 113.289 256.211 113.656 256.805 113.891C257.398 114.125 258.086 114.242 258.867 114.242C259.586 114.242 260.18 114.141 260.648 113.938C261.133 113.734 261.5 113.461 261.75 113.117C262 112.758 262.125 112.344 262.125 111.875ZM286.805 93.6406V99.125H271.523V93.6406H286.805ZM274.734 87.3359H282.633V110.727C282.633 111.398 282.711 111.922 282.867 112.297C283.023 112.656 283.289 112.914 283.664 113.07C284.055 113.211 284.57 113.281 285.211 113.281C285.664 113.281 286.039 113.273 286.336 113.258C286.633 113.227 286.914 113.188 287.18 113.141V118.789C286.508 119.008 285.805 119.172 285.07 119.281C284.336 119.406 283.555 119.469 282.727 119.469C281.039 119.469 279.594 119.203 278.391 118.672C277.203 118.141 276.297 117.305 275.672 116.164C275.047 115.023 274.734 113.539 274.734 111.711V87.3359ZM298.289 93.6406V119H290.367V93.6406H298.289ZM289.898 87.1016C289.898 85.9766 290.305 85.0547 291.117 84.3359C291.93 83.6172 292.984 83.2578 294.281 83.2578C295.578 83.2578 296.633 83.6172 297.445 84.3359C298.258 85.0547 298.664 85.9766 298.664 87.1016C298.664 88.2266 298.258 89.1484 297.445 89.8672C296.633 90.5859 295.578 90.9453 294.281 90.9453C292.984 90.9453 291.93 90.5859 291.117 89.8672C290.305 89.1484 289.898 88.2266 289.898 87.1016ZM310.922 99.0547V119H303.023V93.6406H310.43L310.922 99.0547ZM309.984 105.453L308.133 105.5C308.133 103.562 308.367 101.836 308.836 100.32C309.305 98.7891 309.969 97.4922 310.828 96.4297C311.688 95.3672 312.711 94.5625 313.898 94.0156C315.102 93.4531 316.438 93.1719 317.906 93.1719C319.078 93.1719 320.148 93.3438 321.117 93.6875C322.102 94.0312 322.945 94.5859 323.648 95.3516C324.367 96.1172 324.914 97.1328 325.289 98.3984C325.68 99.6484 325.875 101.195 325.875 103.039V119H317.93V103.016C317.93 102 317.789 101.227 317.508 100.695C317.227 100.148 316.82 99.7734 316.289 99.5703C315.758 99.3672 315.109 99.2656 314.344 99.2656C313.531 99.2656 312.844 99.4219 312.281 99.7344C311.719 100.047 311.266 100.484 310.922 101.047C310.594 101.594 310.352 102.242 310.195 102.992C310.055 103.742 309.984 104.562 309.984 105.453ZM346.195 93.6406H353.367V118.016C353.367 120.359 352.828 122.344 351.75 123.969C350.672 125.609 349.164 126.852 347.227 127.695C345.305 128.555 343.055 128.984 340.477 128.984C339.336 128.984 338.172 128.836 336.984 128.539C335.797 128.258 334.688 127.836 333.656 127.273C332.625 126.711 331.758 126.016 331.055 125.188L334.359 120.547C335 121.266 335.805 121.875 336.773 122.375C337.742 122.891 338.883 123.148 340.195 123.148C341.336 123.148 342.289 122.945 343.055 122.539C343.836 122.133 344.43 121.539 344.836 120.758C345.242 119.992 345.445 119.062 345.445 117.969V99.6406L346.195 93.6406ZM329.344 106.625V106.133C329.344 104.211 329.578 102.461 330.047 100.883C330.531 99.2891 331.219 97.9219 332.109 96.7812C333.016 95.625 334.109 94.7344 335.391 94.1094C336.672 93.4844 338.117 93.1719 339.727 93.1719C341.461 93.1719 342.883 93.5078 343.992 94.1797C345.117 94.8359 346.016 95.7578 346.688 96.9453C347.375 98.1328 347.906 99.5234 348.281 101.117C348.672 102.695 349 104.398 349.266 106.227V106.812C349 108.531 348.633 110.156 348.164 111.688C347.711 113.203 347.117 114.547 346.383 115.719C345.648 116.891 344.727 117.812 343.617 118.484C342.523 119.141 341.211 119.469 339.68 119.469C338.086 119.469 336.648 119.148 335.367 118.508C334.102 117.867 333.016 116.969 332.109 115.812C331.219 114.656 330.531 113.297 330.047 111.734C329.578 110.172 329.344 108.469 329.344 106.625ZM337.242 106.133V106.625C337.242 107.578 337.328 108.461 337.5 109.273C337.688 110.086 337.969 110.805 338.344 111.43C338.719 112.039 339.18 112.516 339.727 112.859C340.289 113.203 340.945 113.375 341.695 113.375C342.836 113.375 343.758 113.133 344.461 112.648C345.164 112.164 345.672 111.477 345.984 110.586C346.297 109.695 346.43 108.648 346.383 107.445V105.594C346.414 104.562 346.344 103.656 346.172 102.875C346 102.078 345.727 101.414 345.352 100.883C344.992 100.352 344.508 99.9531 343.898 99.6875C343.305 99.4062 342.586 99.2656 341.742 99.2656C341.008 99.2656 340.359 99.4375 339.797 99.7812C339.234 100.125 338.766 100.609 338.391 101.234C338.016 101.844 337.727 102.57 337.523 103.414C337.336 104.242 337.242 105.148 337.242 106.133Z" fill="black"/>
<path d="M1134 0H1348C1356.28 0 1363 6.71573 1363 15V148C1363 156.284 1356.28 163 1348 163H1134V0Z" fill="black"/>
<path d="M1210.62 43.625H1286.38V119.375H1210.62V43.625Z" fill="white" fill-opacity="0.01"/>
<path d="M1276.91 72.0312V105.172C1276.91 107.787 1274.79 109.906 1272.17 109.906H1224.83C1222.21 109.906 1220.09 107.787 1220.09 105.172V57.8281C1220.09 55.2134 1222.21 53.0938 1224.83 53.0938H1261.12" stroke="white" stroke-width="7.24" stroke-linecap="round" stroke-linejoin="round"/>
<path d="M1232.72 75.1875L1248.5 87.8125L1276.91 53.0938" stroke="white" stroke-width="7.24" stroke-linecap="round" stroke-linejoin="round"/>
</svg>
