<svg width="1363" height="163" viewBox="0 0 1363 163" fill="none" xmlns="http://www.w3.org/2000/svg">
<path d="M0 15C0 6.71573 6.71573 0 15 0H37V163H15C6.71573 163 0 156.284 0 148V15Z" fill="#424242"/>
<rect width="1097" height="163" transform="translate(37)" fill="#F0F0F0"/>
<path d="M101.906 53.9219L94.3945 51.2383V48.0859L104.602 52.375V54.6367L101.906 53.9219ZM94.3945 56.1719L101.918 53.4297L104.602 52.7852V55.0352L94.3945 59.3242V56.1719ZM122.789 55.3398H126.293C126.223 56.4883 125.906 57.5078 125.344 58.3984C124.789 59.2891 124.012 59.9844 123.012 60.4844C122.02 60.9844 120.824 61.2344 119.426 61.2344C118.332 61.2344 117.352 61.0469 116.484 60.6719C115.617 60.2891 114.875 59.7422 114.258 59.0312C113.648 58.3203 113.184 57.4609 112.863 56.4531C112.543 55.4453 112.383 54.3164 112.383 53.0664V51.8828C112.383 50.6328 112.547 49.5039 112.875 48.4961C113.211 47.4805 113.688 46.6172 114.305 45.9062C114.93 45.1953 115.676 44.6484 116.543 44.2656C117.41 43.8828 118.379 43.6914 119.449 43.6914C120.871 43.6914 122.07 43.9492 123.047 44.4648C124.031 44.9805 124.793 45.6914 125.332 46.5977C125.879 47.5039 126.207 48.5352 126.316 49.6914H122.801C122.762 49.0039 122.625 48.4219 122.391 47.9453C122.156 47.4609 121.801 47.0977 121.324 46.8555C120.855 46.6055 120.23 46.4805 119.449 46.4805C118.863 46.4805 118.352 46.5898 117.914 46.8086C117.477 47.0273 117.109 47.3594 116.812 47.8047C116.516 48.25 116.293 48.8125 116.145 49.4922C116.004 50.1641 115.934 50.9531 115.934 51.8594V53.0664C115.934 53.9492 116 54.7266 116.133 55.3984C116.266 56.0625 116.469 56.625 116.742 57.0859C117.023 57.5391 117.383 57.8828 117.82 58.1172C118.266 58.3438 118.801 58.457 119.426 58.457C120.16 58.457 120.766 58.3398 121.242 58.1055C121.719 57.8711 122.082 57.5234 122.332 57.0625C122.59 56.6016 122.742 56.0273 122.789 55.3398ZM131.684 43V61H128.309V43H131.684ZM131.203 54.2148H130.277C130.285 53.332 130.402 52.5195 130.629 51.7773C130.855 51.0273 131.18 50.3789 131.602 49.832C132.023 49.2773 132.527 48.8477 133.113 48.543C133.707 48.2383 134.363 48.0859 135.082 48.0859C135.707 48.0859 136.273 48.1758 136.781 48.3555C137.297 48.5273 137.738 48.8086 138.105 49.1992C138.48 49.582 138.77 50.0859 138.973 50.7109C139.176 51.3359 139.277 52.0938 139.277 52.9844V61H135.879V52.9609C135.879 52.3984 135.797 51.957 135.633 51.6367C135.477 51.3086 135.246 51.0781 134.941 50.9453C134.645 50.8047 134.277 50.7344 133.84 50.7344C133.355 50.7344 132.941 50.8242 132.598 51.0039C132.262 51.1836 131.992 51.4336 131.789 51.7539C131.586 52.0664 131.438 52.4336 131.344 52.8555C131.25 53.2773 131.203 53.7305 131.203 54.2148ZM145.219 51.0859V61H141.844V48.3203H145.02L145.219 51.0859ZM149.039 48.2383L148.98 51.3672C148.816 51.3438 148.617 51.3242 148.383 51.3086C148.156 51.2852 147.949 51.2734 147.762 51.2734C147.285 51.2734 146.871 51.3359 146.52 51.4609C146.176 51.5781 145.887 51.7539 145.652 51.9883C145.426 52.2227 145.254 52.5078 145.137 52.8438C145.027 53.1797 144.965 53.5625 144.949 53.9922L144.27 53.7812C144.27 52.9609 144.352 52.207 144.516 51.5195C144.68 50.8242 144.918 50.2188 145.23 49.7031C145.551 49.1875 145.941 48.7891 146.402 48.5078C146.863 48.2266 147.391 48.0859 147.984 48.0859C148.172 48.0859 148.363 48.1016 148.559 48.1328C148.754 48.1562 148.914 48.1914 149.039 48.2383ZM149.742 54.7891V54.543C149.742 53.6133 149.875 52.7578 150.141 51.9766C150.406 51.1875 150.793 50.5039 151.301 49.9258C151.809 49.3477 152.434 48.8984 153.176 48.5781C153.918 48.25 154.77 48.0859 155.73 48.0859C156.691 48.0859 157.547 48.25 158.297 48.5781C159.047 48.8984 159.676 49.3477 160.184 49.9258C160.699 50.5039 161.09 51.1875 161.355 51.9766C161.621 52.7578 161.754 53.6133 161.754 54.543V54.7891C161.754 55.7109 161.621 56.5664 161.355 57.3555C161.09 58.1367 160.699 58.8203 160.184 59.4062C159.676 59.9844 159.051 60.4336 158.309 60.7539C157.566 61.0742 156.715 61.2344 155.754 61.2344C154.793 61.2344 153.938 61.0742 153.188 60.7539C152.445 60.4336 151.816 59.9844 151.301 59.4062C150.793 58.8203 150.406 58.1367 150.141 57.3555C149.875 56.5664 149.742 55.7109 149.742 54.7891ZM153.117 54.543V54.7891C153.117 55.3203 153.164 55.8164 153.258 56.2773C153.352 56.7383 153.5 57.1445 153.703 57.4961C153.914 57.8398 154.188 58.1094 154.523 58.3047C154.859 58.5 155.27 58.5977 155.754 58.5977C156.223 58.5977 156.625 58.5 156.961 58.3047C157.297 58.1094 157.566 57.8398 157.77 57.4961C157.973 57.1445 158.121 56.7383 158.215 56.2773C158.316 55.8164 158.367 55.3203 158.367 54.7891V54.543C158.367 54.0273 158.316 53.543 158.215 53.0898C158.121 52.6289 157.969 52.2227 157.758 51.8711C157.555 51.5117 157.285 51.2305 156.949 51.0273C156.613 50.8242 156.207 50.7227 155.73 50.7227C155.254 50.7227 154.848 50.8242 154.512 51.0273C154.184 51.2305 153.914 51.5117 153.703 51.8711C153.5 52.2227 153.352 52.6289 153.258 53.0898C153.164 53.543 153.117 54.0273 153.117 54.543ZM167.133 51.0273V61H163.758V48.3203H166.922L167.133 51.0273ZM166.641 54.2148H165.727C165.727 53.2773 165.848 52.4336 166.09 51.6836C166.332 50.9258 166.672 50.2812 167.109 49.75C167.547 49.2109 168.066 48.8008 168.668 48.5195C169.277 48.2305 169.957 48.0859 170.707 48.0859C171.301 48.0859 171.844 48.1719 172.336 48.3438C172.828 48.5156 173.25 48.7891 173.602 49.1641C173.961 49.5391 174.234 50.0352 174.422 50.6523C174.617 51.2695 174.715 52.0234 174.715 52.9141V61H171.316V52.9023C171.316 52.3398 171.238 51.9023 171.082 51.5898C170.926 51.2773 170.695 51.0586 170.391 50.9336C170.094 50.8008 169.727 50.7344 169.289 50.7344C168.836 50.7344 168.441 50.8242 168.105 51.0039C167.777 51.1836 167.504 51.4336 167.285 51.7539C167.074 52.0664 166.914 52.4336 166.805 52.8555C166.695 53.2773 166.641 53.7305 166.641 54.2148ZM176.742 54.7891V54.543C176.742 53.6133 176.875 52.7578 177.141 51.9766C177.406 51.1875 177.793 50.5039 178.301 49.9258C178.809 49.3477 179.434 48.8984 180.176 48.5781C180.918 48.25 181.77 48.0859 182.73 48.0859C183.691 48.0859 184.547 48.25 185.297 48.5781C186.047 48.8984 186.676 49.3477 187.184 49.9258C187.699 50.5039 188.09 51.1875 188.355 51.9766C188.621 52.7578 188.754 53.6133 188.754 54.543V54.7891C188.754 55.7109 188.621 56.5664 188.355 57.3555C188.09 58.1367 187.699 58.8203 187.184 59.4062C186.676 59.9844 186.051 60.4336 185.309 60.7539C184.566 61.0742 183.715 61.2344 182.754 61.2344C181.793 61.2344 180.938 61.0742 180.188 60.7539C179.445 60.4336 178.816 59.9844 178.301 59.4062C177.793 58.8203 177.406 58.1367 177.141 57.3555C176.875 56.5664 176.742 55.7109 176.742 54.7891ZM180.117 54.543V54.7891C180.117 55.3203 180.164 55.8164 180.258 56.2773C180.352 56.7383 180.5 57.1445 180.703 57.4961C180.914 57.8398 181.188 58.1094 181.523 58.3047C181.859 58.5 182.27 58.5977 182.754 58.5977C183.223 58.5977 183.625 58.5 183.961 58.3047C184.297 58.1094 184.566 57.8398 184.77 57.4961C184.973 57.1445 185.121 56.7383 185.215 56.2773C185.316 55.8164 185.367 55.3203 185.367 54.7891V54.543C185.367 54.0273 185.316 53.543 185.215 53.0898C185.121 52.6289 184.969 52.2227 184.758 51.8711C184.555 51.5117 184.285 51.2305 183.949 51.0273C183.613 50.8242 183.207 50.7227 182.73 50.7227C182.254 50.7227 181.848 50.8242 181.512 51.0273C181.184 51.2305 180.914 51.5117 180.703 51.8711C180.5 52.2227 180.352 52.6289 180.258 53.0898C180.164 53.543 180.117 54.0273 180.117 54.543ZM198.855 48.3203H201.914V60.5781C201.914 61.7344 201.656 62.7148 201.141 63.5195C200.633 64.332 199.922 64.9453 199.008 65.3594C198.094 65.7812 197.031 65.9922 195.82 65.9922C195.289 65.9922 194.727 65.9219 194.133 65.7812C193.547 65.6406 192.984 65.4219 192.445 65.125C191.914 64.8281 191.469 64.4531 191.109 64L192.598 62.0078C192.988 62.4609 193.441 62.8125 193.957 63.0625C194.473 63.3203 195.043 63.4492 195.668 63.4492C196.277 63.4492 196.793 63.3359 197.215 63.1094C197.637 62.8906 197.961 62.5664 198.188 62.1367C198.414 61.7148 198.527 61.2031 198.527 60.6016V51.25L198.855 48.3203ZM190.324 54.8125V54.5664C190.324 53.5977 190.441 52.7188 190.676 51.9297C190.918 51.1328 191.258 50.4492 191.695 49.8789C192.141 49.3086 192.68 48.8672 193.312 48.5547C193.945 48.2422 194.66 48.0859 195.457 48.0859C196.301 48.0859 197.008 48.2422 197.578 48.5547C198.148 48.8672 198.617 49.3125 198.984 49.8906C199.352 50.4609 199.637 51.1367 199.84 51.918C200.051 52.6914 200.215 53.5391 200.332 54.4609V55C200.215 55.8828 200.039 56.7031 199.805 57.4609C199.57 58.2188 199.262 58.8828 198.879 59.4531C198.496 60.0156 198.02 60.4531 197.449 60.7656C196.887 61.0781 196.215 61.2344 195.434 61.2344C194.652 61.2344 193.945 61.0742 193.312 60.7539C192.688 60.4336 192.152 59.9844 191.707 59.4062C191.262 58.8281 190.918 58.1484 190.676 57.3672C190.441 56.5859 190.324 55.7344 190.324 54.8125ZM193.699 54.5664V54.8125C193.699 55.3359 193.75 55.8242 193.852 56.2773C193.953 56.7305 194.109 57.1328 194.32 57.4844C194.539 57.8281 194.809 58.0977 195.129 58.293C195.457 58.4805 195.844 58.5742 196.289 58.5742C196.906 58.5742 197.41 58.4453 197.801 58.1875C198.191 57.9219 198.484 57.5586 198.68 57.0977C198.875 56.6367 198.988 56.1055 199.02 55.5039V53.9688C199.004 53.4766 198.938 53.0352 198.82 52.6445C198.703 52.2461 198.539 51.9062 198.328 51.625C198.117 51.3438 197.844 51.125 197.508 50.9688C197.172 50.8125 196.773 50.7344 196.312 50.7344C195.867 50.7344 195.48 50.8359 195.152 51.0391C194.832 51.2344 194.562 51.5039 194.344 51.8477C194.133 52.1914 193.973 52.5977 193.863 53.0664C193.754 53.5273 193.699 54.0273 193.699 54.5664ZM207.914 51.0859V61H204.539V48.3203H207.715L207.914 51.0859ZM211.734 48.2383L211.676 51.3672C211.512 51.3438 211.312 51.3242 211.078 51.3086C210.852 51.2852 210.645 51.2734 210.457 51.2734C209.98 51.2734 209.566 51.3359 209.215 51.4609C208.871 51.5781 208.582 51.7539 208.348 51.9883C208.121 52.2227 207.949 52.5078 207.832 52.8438C207.723 53.1797 207.66 53.5625 207.645 53.9922L206.965 53.7812C206.965 52.9609 207.047 52.207 207.211 51.5195C207.375 50.8242 207.613 50.2188 207.926 49.7031C208.246 49.1875 208.637 48.7891 209.098 48.5078C209.559 48.2266 210.086 48.0859 210.68 48.0859C210.867 48.0859 211.059 48.1016 211.254 48.1328C211.449 48.1562 211.609 48.1914 211.734 48.2383ZM219.773 58.1406V52.4922C219.773 52.0859 219.707 51.7383 219.574 51.4492C219.441 51.1523 219.234 50.9219 218.953 50.7578C218.68 50.5938 218.324 50.5117 217.887 50.5117C217.512 50.5117 217.188 50.5781 216.914 50.7109C216.641 50.8359 216.43 51.0195 216.281 51.2617C216.133 51.4961 216.059 51.7734 216.059 52.0938H212.684C212.684 51.5547 212.809 51.043 213.059 50.5586C213.309 50.0742 213.672 49.6484 214.148 49.2812C214.625 48.9062 215.191 48.6133 215.848 48.4023C216.512 48.1914 217.254 48.0859 218.074 48.0859C219.059 48.0859 219.934 48.25 220.699 48.5781C221.465 48.9062 222.066 49.3984 222.504 50.0547C222.949 50.7109 223.172 51.5312 223.172 52.5156V57.9414C223.172 58.6367 223.215 59.207 223.301 59.6523C223.387 60.0898 223.512 60.4727 223.676 60.8008V61H220.266C220.102 60.6562 219.977 60.2266 219.891 59.7109C219.812 59.1875 219.773 58.6641 219.773 58.1406ZM220.219 53.2773L220.242 55.1875H218.355C217.91 55.1875 217.523 55.2383 217.195 55.3398C216.867 55.4414 216.598 55.5859 216.387 55.7734C216.176 55.9531 216.02 56.1641 215.918 56.4062C215.824 56.6484 215.777 56.9141 215.777 57.2031C215.777 57.4922 215.844 57.7539 215.977 57.9883C216.109 58.2148 216.301 58.3945 216.551 58.5273C216.801 58.6523 217.094 58.7148 217.43 58.7148C217.938 58.7148 218.379 58.6133 218.754 58.4102C219.129 58.207 219.418 57.957 219.621 57.6602C219.832 57.3633 219.941 57.082 219.949 56.8164L220.84 58.2461C220.715 58.5664 220.543 58.8984 220.324 59.2422C220.113 59.5859 219.844 59.9102 219.516 60.2148C219.188 60.5117 218.793 60.7578 218.332 60.9531C217.871 61.1406 217.324 61.2344 216.691 61.2344C215.887 61.2344 215.156 61.0742 214.5 60.7539C213.852 60.4258 213.336 59.9766 212.953 59.4062C212.578 58.8281 212.391 58.1719 212.391 57.4375C212.391 56.7734 212.516 56.1836 212.766 55.668C213.016 55.1523 213.383 54.7188 213.867 54.3672C214.359 54.0078 214.973 53.7383 215.707 53.5586C216.441 53.3711 217.293 53.2773 218.262 53.2773H220.219ZM229.148 50.7578V65.875H225.773V48.3203H228.902L229.148 50.7578ZM237.176 54.5195V54.7656C237.176 55.6875 237.066 56.543 236.848 57.332C236.637 58.1211 236.324 58.8086 235.91 59.3945C235.496 59.9727 234.98 60.4258 234.363 60.7539C233.754 61.0742 233.051 61.2344 232.254 61.2344C231.48 61.2344 230.809 61.0781 230.238 60.7656C229.668 60.4531 229.188 60.0156 228.797 59.4531C228.414 58.8828 228.105 58.2227 227.871 57.4727C227.637 56.7227 227.457 55.918 227.332 55.0586V54.4141C227.457 53.4922 227.637 52.6484 227.871 51.8828C228.105 51.1094 228.414 50.4414 228.797 49.8789C229.188 49.3086 229.664 48.8672 230.227 48.5547C230.797 48.2422 231.465 48.0859 232.23 48.0859C233.035 48.0859 233.742 48.2383 234.352 48.543C234.969 48.8477 235.484 49.2852 235.898 49.8555C236.32 50.4258 236.637 51.1055 236.848 51.8945C237.066 52.6836 237.176 53.5586 237.176 54.5195ZM233.789 54.7656V54.5195C233.789 53.9805 233.742 53.4844 233.648 53.0312C233.562 52.5703 233.422 52.168 233.227 51.8242C233.039 51.4805 232.789 51.2148 232.477 51.0273C232.172 50.832 231.801 50.7344 231.363 50.7344C230.902 50.7344 230.508 50.8086 230.18 50.957C229.859 51.1055 229.598 51.3203 229.395 51.6016C229.191 51.8828 229.039 52.2188 228.938 52.6094C228.836 53 228.773 53.4414 228.75 53.9336V55.5625C228.789 56.1406 228.898 56.6602 229.078 57.1211C229.258 57.5742 229.535 57.9336 229.91 58.1992C230.285 58.4648 230.777 58.5977 231.387 58.5977C231.832 58.5977 232.207 58.5 232.512 58.3047C232.816 58.1016 233.062 57.8242 233.25 57.4727C233.445 57.1211 233.582 56.7148 233.66 56.2539C233.746 55.793 233.789 55.2969 233.789 54.7656ZM242.566 43V61H239.191V43H242.566ZM242.086 54.2148H241.16C241.168 53.332 241.285 52.5195 241.512 51.7773C241.738 51.0273 242.062 50.3789 242.484 49.832C242.906 49.2773 243.41 48.8477 243.996 48.543C244.59 48.2383 245.246 48.0859 245.965 48.0859C246.59 48.0859 247.156 48.1758 247.664 48.3555C248.18 48.5273 248.621 48.8086 248.988 49.1992C249.363 49.582 249.652 50.0859 249.855 50.7109C250.059 51.3359 250.16 52.0938 250.16 52.9844V61H246.762V52.9609C246.762 52.3984 246.68 51.957 246.516 51.6367C246.359 51.3086 246.129 51.0781 245.824 50.9453C245.527 50.8047 245.16 50.7344 244.723 50.7344C244.238 50.7344 243.824 50.8242 243.48 51.0039C243.145 51.1836 242.875 51.4336 242.672 51.7539C242.469 52.0664 242.32 52.4336 242.227 52.8555C242.133 53.2773 242.086 53.7305 242.086 54.2148Z" fill="#888888"/>
<path d="M112.125 84.875V119H103.898V84.875H112.125ZM122.391 84.875V91.2266H93.8672V84.875H122.391ZM135.68 119.469C133.617 119.469 131.773 119.148 130.148 118.508C128.523 117.852 127.148 116.953 126.023 115.812C124.914 114.672 124.062 113.359 123.469 111.875C122.891 110.391 122.602 108.82 122.602 107.164V106.273C122.602 104.414 122.859 102.695 123.375 101.117C123.891 99.5234 124.656 98.1328 125.672 96.9453C126.688 95.7578 127.961 94.8359 129.492 94.1797C131.023 93.5078 132.805 93.1719 134.836 93.1719C136.633 93.1719 138.242 93.4609 139.664 94.0391C141.086 94.6172 142.289 95.4453 143.273 96.5234C144.273 97.6016 145.031 98.9062 145.547 100.438C146.078 101.969 146.344 103.688 146.344 105.594V108.805H125.625V103.859H138.633V103.25C138.648 102.406 138.5 101.688 138.188 101.094C137.891 100.5 137.453 100.047 136.875 99.7344C136.297 99.4219 135.594 99.2656 134.766 99.2656C133.906 99.2656 133.195 99.4531 132.633 99.8281C132.086 100.203 131.656 100.719 131.344 101.375C131.047 102.016 130.836 102.758 130.711 103.602C130.586 104.445 130.523 105.336 130.523 106.273V107.164C130.523 108.102 130.648 108.953 130.898 109.719C131.164 110.484 131.539 111.141 132.023 111.688C132.523 112.219 133.117 112.633 133.805 112.93C134.508 113.227 135.305 113.375 136.195 113.375C137.273 113.375 138.336 113.172 139.383 112.766C140.43 112.359 141.328 111.688 142.078 110.75L145.664 115.016C145.148 115.75 144.414 116.461 143.461 117.148C142.523 117.836 141.398 118.398 140.086 118.836C138.773 119.258 137.305 119.469 135.68 119.469ZM160.266 113.375C161 113.375 161.625 113.242 162.141 112.977C162.672 112.695 163.07 112.305 163.336 111.805C163.617 111.289 163.75 110.672 163.734 109.953H171.164C171.18 111.859 170.711 113.531 169.758 114.969C168.82 116.391 167.539 117.5 165.914 118.297C164.305 119.078 162.484 119.469 160.453 119.469C158.469 119.469 156.734 119.148 155.25 118.508C153.766 117.852 152.523 116.945 151.523 115.789C150.539 114.617 149.797 113.25 149.297 111.688C148.812 110.125 148.57 108.43 148.57 106.602V106.062C148.57 104.234 148.812 102.539 149.297 100.977C149.797 99.3984 150.539 98.0312 151.523 96.875C152.523 95.7031 153.758 94.7969 155.227 94.1562C156.711 93.5 158.438 93.1719 160.406 93.1719C162.516 93.1719 164.375 93.5703 165.984 94.3672C167.609 95.1641 168.883 96.3203 169.805 97.8359C170.727 99.3516 171.18 101.188 171.164 103.344H163.734C163.75 102.578 163.633 101.891 163.383 101.281C163.133 100.672 162.742 100.188 162.211 99.8281C161.695 99.4531 161.031 99.2656 160.219 99.2656C159.406 99.2656 158.75 99.4453 158.25 99.8047C157.75 100.164 157.367 100.664 157.102 101.305C156.852 101.93 156.68 102.648 156.586 103.461C156.508 104.273 156.469 105.141 156.469 106.062V106.602C156.469 107.539 156.508 108.422 156.586 109.25C156.68 110.062 156.859 110.781 157.125 111.406C157.391 112.016 157.773 112.5 158.273 112.859C158.773 113.203 159.438 113.375 160.266 113.375ZM182.273 83V119H174.375V83H182.273ZM181.336 105.453L179.484 105.5C179.484 103.719 179.703 102.078 180.141 100.578C180.578 99.0781 181.203 97.7734 182.016 96.6641C182.828 95.5547 183.805 94.6953 184.945 94.0859C186.086 93.4766 187.352 93.1719 188.742 93.1719C189.992 93.1719 191.133 93.3516 192.164 93.7109C193.211 94.0703 194.109 94.6484 194.859 95.4453C195.625 96.2422 196.211 97.2812 196.617 98.5625C197.039 99.8438 197.25 101.406 197.25 103.25V119H189.305V103.203C189.305 102.172 189.156 101.375 188.859 100.812C188.578 100.234 188.172 99.8359 187.641 99.6172C187.109 99.3828 186.461 99.2656 185.695 99.2656C184.773 99.2656 184.023 99.4219 183.445 99.7344C182.867 100.047 182.422 100.484 182.109 101.047C181.812 101.594 181.609 102.242 181.5 102.992C181.391 103.742 181.336 104.562 181.336 105.453ZM231.539 109.93C231.539 109.398 231.461 108.922 231.305 108.5C231.148 108.062 230.859 107.656 230.438 107.281C230.016 106.906 229.406 106.531 228.609 106.156C227.828 105.766 226.797 105.359 225.516 104.938C224.016 104.438 222.57 103.875 221.18 103.25C219.789 102.609 218.547 101.867 217.453 101.023C216.359 100.164 215.492 99.1641 214.852 98.0234C214.211 96.8672 213.891 95.5234 213.891 93.9922C213.891 92.5234 214.219 91.2031 214.875 90.0312C215.531 88.8438 216.445 87.8359 217.617 87.0078C218.805 86.1641 220.195 85.5234 221.789 85.0859C223.383 84.6328 225.125 84.4062 227.016 84.4062C229.516 84.4062 231.719 84.8438 233.625 85.7188C235.547 86.5781 237.047 87.8047 238.125 89.3984C239.219 90.9766 239.766 92.8438 239.766 95H231.586C231.586 94.1406 231.406 93.3828 231.047 92.7266C230.703 92.0703 230.18 91.5547 229.477 91.1797C228.773 90.8047 227.891 90.6172 226.828 90.6172C225.797 90.6172 224.93 90.7734 224.227 91.0859C223.523 91.3984 222.992 91.8203 222.633 92.3516C222.273 92.8672 222.094 93.4375 222.094 94.0625C222.094 94.5781 222.234 95.0469 222.516 95.4688C222.812 95.875 223.227 96.2578 223.758 96.6172C224.305 96.9766 224.961 97.3203 225.727 97.6484C226.508 97.9766 227.383 98.2969 228.352 98.6094C230.164 99.1875 231.773 99.8359 233.18 100.555C234.602 101.258 235.797 102.062 236.766 102.969C237.75 103.859 238.492 104.875 238.992 106.016C239.508 107.156 239.766 108.445 239.766 109.883C239.766 111.414 239.469 112.773 238.875 113.961C238.281 115.148 237.43 116.156 236.32 116.984C235.211 117.797 233.883 118.414 232.336 118.836C230.789 119.258 229.062 119.469 227.156 119.469C225.406 119.469 223.68 119.25 221.977 118.812C220.289 118.359 218.758 117.672 217.383 116.75C216.008 115.812 214.906 114.617 214.078 113.164C213.266 111.695 212.859 109.953 212.859 107.938H221.109C221.109 108.938 221.242 109.781 221.508 110.469C221.773 111.156 222.164 111.711 222.68 112.133C223.195 112.539 223.828 112.836 224.578 113.023C225.328 113.195 226.188 113.281 227.156 113.281C228.203 113.281 229.047 113.133 229.688 112.836C230.328 112.523 230.797 112.117 231.094 111.617C231.391 111.102 231.539 110.539 231.539 109.93ZM256.992 93.6406V99.125H241.711V93.6406H256.992ZM244.922 87.3359H252.82V110.727C252.82 111.398 252.898 111.922 253.055 112.297C253.211 112.656 253.477 112.914 253.852 113.07C254.242 113.211 254.758 113.281 255.398 113.281C255.852 113.281 256.227 113.273 256.523 113.258C256.82 113.227 257.102 113.188 257.367 113.141V118.789C256.695 119.008 255.992 119.172 255.258 119.281C254.523 119.406 253.742 119.469 252.914 119.469C251.227 119.469 249.781 119.203 248.578 118.672C247.391 118.141 246.484 117.305 245.859 116.164C245.234 115.023 244.922 113.539 244.922 111.711V87.3359ZM273.305 112.625V102.172C273.305 101.453 273.203 100.836 273 100.32C272.797 99.8047 272.477 99.4062 272.039 99.125C271.602 98.8281 271.016 98.6797 270.281 98.6797C269.688 98.6797 269.18 98.7812 268.758 98.9844C268.336 99.1875 268.016 99.4922 267.797 99.8984C267.578 100.305 267.469 100.82 267.469 101.445H259.57C259.57 100.273 259.828 99.1875 260.344 98.1875C260.875 97.1719 261.625 96.2891 262.594 95.5391C263.578 94.7891 264.75 94.2109 266.109 93.8047C267.484 93.3828 269.016 93.1719 270.703 93.1719C272.719 93.1719 274.516 93.5078 276.094 94.1797C277.688 94.8516 278.945 95.8594 279.867 97.2031C280.789 98.5312 281.25 100.203 281.25 102.219V112.602C281.25 114.258 281.344 115.516 281.531 116.375C281.719 117.219 281.984 117.961 282.328 118.602V119H274.406C274.031 118.219 273.75 117.266 273.562 116.141C273.391 115 273.305 113.828 273.305 112.625ZM274.266 103.508L274.312 107.727H270.82C270.086 107.727 269.461 107.828 268.945 108.031C268.445 108.234 268.039 108.516 267.727 108.875C267.43 109.219 267.211 109.609 267.07 110.047C266.945 110.484 266.883 110.945 266.883 111.43C266.883 111.898 266.992 112.32 267.211 112.695C267.445 113.055 267.758 113.336 268.148 113.539C268.539 113.742 268.977 113.844 269.461 113.844C270.336 113.844 271.078 113.68 271.688 113.352C272.312 113.008 272.789 112.594 273.117 112.109C273.445 111.625 273.609 111.172 273.609 110.75L275.344 113.984C275.031 114.609 274.672 115.242 274.266 115.883C273.875 116.523 273.383 117.117 272.789 117.664C272.211 118.195 271.5 118.633 270.656 118.977C269.812 119.305 268.789 119.469 267.586 119.469C266.023 119.469 264.586 119.148 263.273 118.508C261.977 117.867 260.938 116.977 260.156 115.836C259.375 114.68 258.984 113.352 258.984 111.852C258.984 110.539 259.219 109.367 259.688 108.336C260.172 107.305 260.898 106.43 261.867 105.711C262.836 104.992 264.07 104.445 265.57 104.07C267.07 103.695 268.836 103.508 270.867 103.508H274.266ZM296.344 113.375C297.078 113.375 297.703 113.242 298.219 112.977C298.75 112.695 299.148 112.305 299.414 111.805C299.695 111.289 299.828 110.672 299.812 109.953H307.242C307.258 111.859 306.789 113.531 305.836 114.969C304.898 116.391 303.617 117.5 301.992 118.297C300.383 119.078 298.562 119.469 296.531 119.469C294.547 119.469 292.812 119.148 291.328 118.508C289.844 117.852 288.602 116.945 287.602 115.789C286.617 114.617 285.875 113.25 285.375 111.688C284.891 110.125 284.648 108.43 284.648 106.602V106.062C284.648 104.234 284.891 102.539 285.375 100.977C285.875 99.3984 286.617 98.0312 287.602 96.875C288.602 95.7031 289.836 94.7969 291.305 94.1562C292.789 93.5 294.516 93.1719 296.484 93.1719C298.594 93.1719 300.453 93.5703 302.062 94.3672C303.688 95.1641 304.961 96.3203 305.883 97.8359C306.805 99.3516 307.258 101.188 307.242 103.344H299.812C299.828 102.578 299.711 101.891 299.461 101.281C299.211 100.672 298.82 100.188 298.289 99.8281C297.773 99.4531 297.109 99.2656 296.297 99.2656C295.484 99.2656 294.828 99.4453 294.328 99.8047C293.828 100.164 293.445 100.664 293.18 101.305C292.93 101.93 292.758 102.648 292.664 103.461C292.586 104.273 292.547 105.141 292.547 106.062V106.602C292.547 107.539 292.586 108.422 292.664 109.25C292.758 110.062 292.938 110.781 293.203 111.406C293.469 112.016 293.852 112.5 294.352 112.859C294.852 113.203 295.516 113.375 296.344 113.375ZM318.586 82.9766V119H310.688V82.9766H318.586ZM334.805 93.6406L323.789 106.555L318.023 112.32L314.578 107.305L319.383 101.047L325.336 93.6406H334.805ZM326.344 119L319.57 107.445L325.406 103.297L335.391 119H326.344ZM350.156 111.875C350.156 111.438 350.008 111.062 349.711 110.75C349.43 110.422 348.93 110.125 348.211 109.859C347.492 109.578 346.484 109.297 345.188 109.016C343.953 108.75 342.789 108.398 341.695 107.961C340.617 107.523 339.672 106.992 338.859 106.367C338.047 105.742 337.406 105 336.938 104.141C336.484 103.281 336.258 102.297 336.258 101.188C336.258 100.109 336.484 99.0938 336.938 98.1406C337.406 97.1719 338.086 96.3203 338.977 95.5859C339.883 94.8359 340.984 94.25 342.281 93.8281C343.578 93.3906 345.055 93.1719 346.711 93.1719C348.992 93.1719 350.961 93.5234 352.617 94.2266C354.273 94.9141 355.547 95.8828 356.438 97.1328C357.344 98.3672 357.797 99.7969 357.797 101.422H349.898C349.898 100.781 349.789 100.234 349.57 99.7812C349.367 99.3281 349.031 98.9844 348.562 98.75C348.094 98.5 347.469 98.375 346.688 98.375C346.141 98.375 345.641 98.4766 345.188 98.6797C344.75 98.8828 344.398 99.1641 344.133 99.5234C343.867 99.8828 343.734 100.305 343.734 100.789C343.734 101.133 343.812 101.445 343.969 101.727C344.141 101.992 344.398 102.242 344.742 102.477C345.086 102.695 345.523 102.898 346.055 103.086C346.586 103.258 347.227 103.414 347.977 103.555C349.68 103.867 351.273 104.312 352.758 104.891C354.242 105.469 355.445 106.289 356.367 107.352C357.305 108.414 357.773 109.844 357.773 111.641C357.773 112.766 357.516 113.805 357 114.758C356.484 115.695 355.742 116.523 354.773 117.242C353.805 117.945 352.641 118.492 351.281 118.883C349.922 119.273 348.391 119.469 346.688 119.469C344.266 119.469 342.219 119.039 340.547 118.18C338.875 117.305 337.609 116.211 336.75 114.898C335.906 113.57 335.484 112.227 335.484 110.867H342.844C342.875 111.648 343.062 112.289 343.406 112.789C343.766 113.289 344.242 113.656 344.836 113.891C345.43 114.125 346.117 114.242 346.898 114.242C347.617 114.242 348.211 114.141 348.68 113.938C349.164 113.734 349.531 113.461 349.781 113.117C350.031 112.758 350.156 112.344 350.156 111.875Z" fill="black"/>
<path d="M1134 0H1348C1356.28 0 1363 6.71573 1363 15V148C1363 156.284 1356.28 163 1348 163H1134V0Z" fill="black"/>
<path fill-rule="evenodd" clip-rule="evenodd" d="M1219.98 53C1219.85 53 1219.73 53.0527 1219.64 53.1464C1219.55 53.2402 1219.5 53.3674 1219.5 53.5V109.5C1219.5 109.633 1219.55 109.76 1219.64 109.854C1219.73 109.947 1219.85 110 1219.98 110H1277.02C1277.15 110 1277.27 109.947 1277.36 109.854C1277.45 109.76 1277.5 109.633 1277.5 109.5V64C1277.5 63.8674 1277.45 63.7402 1277.36 63.6464C1277.27 63.5527 1277.15 63.5 1277.02 63.5H1248.5C1247.65 63.5 1246.84 63.1045 1246.29 62.4206L1238.77 53H1219.98ZM1215.58 48.9038C1216.74 47.6848 1218.33 47 1219.98 47H1240.11C1240.97 47 1241.77 47.3955 1242.32 48.0794L1249.85 57.5H1277.02C1278.67 57.5 1280.26 58.1848 1281.42 59.4038C1282.59 60.6228 1283.25 62.2761 1283.25 64V109.5C1283.25 111.224 1282.59 112.877 1281.42 114.096C1280.26 115.315 1278.67 116 1277.02 116H1219.98C1218.33 116 1216.74 115.315 1215.58 114.096C1214.41 112.877 1213.75 111.224 1213.75 109.5V53.5C1213.75 51.7761 1214.41 50.1228 1215.58 48.9038Z" fill="white"/>
<path fill-rule="evenodd" clip-rule="evenodd" d="M1244.16 75.5251C1245.47 76.892 1245.47 79.108 1244.16 80.4749L1238.15 86.75L1244.16 93.0251C1245.47 94.392 1245.47 96.608 1244.16 97.9749C1242.85 99.3417 1240.73 99.3417 1239.42 97.9749L1231.03 89.2249C1229.72 87.858 1229.72 85.642 1231.03 84.2751L1239.42 75.5251C1240.73 74.1583 1242.85 74.1583 1244.16 75.5251Z" fill="white"/>
<path fill-rule="evenodd" clip-rule="evenodd" d="M1252.12 97.9749C1250.81 96.608 1250.81 94.392 1252.12 93.0251L1258.13 86.75L1252.12 80.4749C1250.81 79.108 1250.81 76.892 1252.12 75.5251C1253.43 74.1583 1255.55 74.1583 1256.86 75.5251L1265.25 84.2751C1266.56 85.642 1266.56 87.858 1265.25 89.2249L1256.86 97.9749C1255.55 99.3417 1253.43 99.3417 1252.12 97.9749Z" fill="white"/>
</svg>
