<svg width="1363" height="163" viewBox="0 0 1363 163" fill="none" xmlns="http://www.w3.org/2000/svg">
<path d="M0 15C0 6.71573 6.71573 0 15 0H37V163H15C6.71573 163 0 156.284 0 148V15Z" fill="#424242"/>
<rect width="1097" height="163" transform="translate(37)" fill="#F0F0F0"/>
<path d="M101.906 53.9219L94.3945 51.2383V48.0859L104.602 52.375V54.6367L101.906 53.9219ZM94.3945 56.1719L101.918 53.4297L104.602 52.7852V55.0352L94.3945 59.3242V56.1719ZM122.789 55.3398H126.293C126.223 56.4883 125.906 57.5078 125.344 58.3984C124.789 59.2891 124.012 59.9844 123.012 60.4844C122.02 60.9844 120.824 61.2344 119.426 61.2344C118.332 61.2344 117.352 61.0469 116.484 60.6719C115.617 60.2891 114.875 59.7422 114.258 59.0312C113.648 58.3203 113.184 57.4609 112.863 56.4531C112.543 55.4453 112.383 54.3164 112.383 53.0664V51.8828C112.383 50.6328 112.547 49.5039 112.875 48.4961C113.211 47.4805 113.688 46.6172 114.305 45.9062C114.93 45.1953 115.676 44.6484 116.543 44.2656C117.41 43.8828 118.379 43.6914 119.449 43.6914C120.871 43.6914 122.07 43.9492 123.047 44.4648C124.031 44.9805 124.793 45.6914 125.332 46.5977C125.879 47.5039 126.207 48.5352 126.316 49.6914H122.801C122.762 49.0039 122.625 48.4219 122.391 47.9453C122.156 47.4609 121.801 47.0977 121.324 46.8555C120.855 46.6055 120.23 46.4805 119.449 46.4805C118.863 46.4805 118.352 46.5898 117.914 46.8086C117.477 47.0273 117.109 47.3594 116.812 47.8047C116.516 48.25 116.293 48.8125 116.145 49.4922C116.004 50.1641 115.934 50.9531 115.934 51.8594V53.0664C115.934 53.9492 116 54.7266 116.133 55.3984C116.266 56.0625 116.469 56.625 116.742 57.0859C117.023 57.5391 117.383 57.8828 117.82 58.1172C118.266 58.3438 118.801 58.457 119.426 58.457C120.16 58.457 120.766 58.3398 121.242 58.1055C121.719 57.8711 122.082 57.5234 122.332 57.0625C122.59 56.6016 122.742 56.0273 122.789 55.3398ZM131.684 43V61H128.309V43H131.684ZM131.203 54.2148H130.277C130.285 53.332 130.402 52.5195 130.629 51.7773C130.855 51.0273 131.18 50.3789 131.602 49.832C132.023 49.2773 132.527 48.8477 133.113 48.543C133.707 48.2383 134.363 48.0859 135.082 48.0859C135.707 48.0859 136.273 48.1758 136.781 48.3555C137.297 48.5273 137.738 48.8086 138.105 49.1992C138.48 49.582 138.77 50.0859 138.973 50.7109C139.176 51.3359 139.277 52.0938 139.277 52.9844V61H135.879V52.9609C135.879 52.3984 135.797 51.957 135.633 51.6367C135.477 51.3086 135.246 51.0781 134.941 50.9453C134.645 50.8047 134.277 50.7344 133.84 50.7344C133.355 50.7344 132.941 50.8242 132.598 51.0039C132.262 51.1836 131.992 51.4336 131.789 51.7539C131.586 52.0664 131.438 52.4336 131.344 52.8555C131.25 53.2773 131.203 53.7305 131.203 54.2148ZM145.219 51.0859V61H141.844V48.3203H145.02L145.219 51.0859ZM149.039 48.2383L148.98 51.3672C148.816 51.3438 148.617 51.3242 148.383 51.3086C148.156 51.2852 147.949 51.2734 147.762 51.2734C147.285 51.2734 146.871 51.3359 146.52 51.4609C146.176 51.5781 145.887 51.7539 145.652 51.9883C145.426 52.2227 145.254 52.5078 145.137 52.8438C145.027 53.1797 144.965 53.5625 144.949 53.9922L144.27 53.7812C144.27 52.9609 144.352 52.207 144.516 51.5195C144.68 50.8242 144.918 50.2188 145.23 49.7031C145.551 49.1875 145.941 48.7891 146.402 48.5078C146.863 48.2266 147.391 48.0859 147.984 48.0859C148.172 48.0859 148.363 48.1016 148.559 48.1328C148.754 48.1562 148.914 48.1914 149.039 48.2383ZM149.742 54.7891V54.543C149.742 53.6133 149.875 52.7578 150.141 51.9766C150.406 51.1875 150.793 50.5039 151.301 49.9258C151.809 49.3477 152.434 48.8984 153.176 48.5781C153.918 48.25 154.77 48.0859 155.73 48.0859C156.691 48.0859 157.547 48.25 158.297 48.5781C159.047 48.8984 159.676 49.3477 160.184 49.9258C160.699 50.5039 161.09 51.1875 161.355 51.9766C161.621 52.7578 161.754 53.6133 161.754 54.543V54.7891C161.754 55.7109 161.621 56.5664 161.355 57.3555C161.09 58.1367 160.699 58.8203 160.184 59.4062C159.676 59.9844 159.051 60.4336 158.309 60.7539C157.566 61.0742 156.715 61.2344 155.754 61.2344C154.793 61.2344 153.938 61.0742 153.188 60.7539C152.445 60.4336 151.816 59.9844 151.301 59.4062C150.793 58.8203 150.406 58.1367 150.141 57.3555C149.875 56.5664 149.742 55.7109 149.742 54.7891ZM153.117 54.543V54.7891C153.117 55.3203 153.164 55.8164 153.258 56.2773C153.352 56.7383 153.5 57.1445 153.703 57.4961C153.914 57.8398 154.188 58.1094 154.523 58.3047C154.859 58.5 155.27 58.5977 155.754 58.5977C156.223 58.5977 156.625 58.5 156.961 58.3047C157.297 58.1094 157.566 57.8398 157.77 57.4961C157.973 57.1445 158.121 56.7383 158.215 56.2773C158.316 55.8164 158.367 55.3203 158.367 54.7891V54.543C158.367 54.0273 158.316 53.543 158.215 53.0898C158.121 52.6289 157.969 52.2227 157.758 51.8711C157.555 51.5117 157.285 51.2305 156.949 51.0273C156.613 50.8242 156.207 50.7227 155.73 50.7227C155.254 50.7227 154.848 50.8242 154.512 51.0273C154.184 51.2305 153.914 51.5117 153.703 51.8711C153.5 52.2227 153.352 52.6289 153.258 53.0898C153.164 53.543 153.117 54.0273 153.117 54.543ZM167.133 51.0273V61H163.758V48.3203H166.922L167.133 51.0273ZM166.641 54.2148H165.727C165.727 53.2773 165.848 52.4336 166.09 51.6836C166.332 50.9258 166.672 50.2812 167.109 49.75C167.547 49.2109 168.066 48.8008 168.668 48.5195C169.277 48.2305 169.957 48.0859 170.707 48.0859C171.301 48.0859 171.844 48.1719 172.336 48.3438C172.828 48.5156 173.25 48.7891 173.602 49.1641C173.961 49.5391 174.234 50.0352 174.422 50.6523C174.617 51.2695 174.715 52.0234 174.715 52.9141V61H171.316V52.9023C171.316 52.3398 171.238 51.9023 171.082 51.5898C170.926 51.2773 170.695 51.0586 170.391 50.9336C170.094 50.8008 169.727 50.7344 169.289 50.7344C168.836 50.7344 168.441 50.8242 168.105 51.0039C167.777 51.1836 167.504 51.4336 167.285 51.7539C167.074 52.0664 166.914 52.4336 166.805 52.8555C166.695 53.2773 166.641 53.7305 166.641 54.2148ZM176.742 54.7891V54.543C176.742 53.6133 176.875 52.7578 177.141 51.9766C177.406 51.1875 177.793 50.5039 178.301 49.9258C178.809 49.3477 179.434 48.8984 180.176 48.5781C180.918 48.25 181.77 48.0859 182.73 48.0859C183.691 48.0859 184.547 48.25 185.297 48.5781C186.047 48.8984 186.676 49.3477 187.184 49.9258C187.699 50.5039 188.09 51.1875 188.355 51.9766C188.621 52.7578 188.754 53.6133 188.754 54.543V54.7891C188.754 55.7109 188.621 56.5664 188.355 57.3555C188.09 58.1367 187.699 58.8203 187.184 59.4062C186.676 59.9844 186.051 60.4336 185.309 60.7539C184.566 61.0742 183.715 61.2344 182.754 61.2344C181.793 61.2344 180.938 61.0742 180.188 60.7539C179.445 60.4336 178.816 59.9844 178.301 59.4062C177.793 58.8203 177.406 58.1367 177.141 57.3555C176.875 56.5664 176.742 55.7109 176.742 54.7891ZM180.117 54.543V54.7891C180.117 55.3203 180.164 55.8164 180.258 56.2773C180.352 56.7383 180.5 57.1445 180.703 57.4961C180.914 57.8398 181.188 58.1094 181.523 58.3047C181.859 58.5 182.27 58.5977 182.754 58.5977C183.223 58.5977 183.625 58.5 183.961 58.3047C184.297 58.1094 184.566 57.8398 184.77 57.4961C184.973 57.1445 185.121 56.7383 185.215 56.2773C185.316 55.8164 185.367 55.3203 185.367 54.7891V54.543C185.367 54.0273 185.316 53.543 185.215 53.0898C185.121 52.6289 184.969 52.2227 184.758 51.8711C184.555 51.5117 184.285 51.2305 183.949 51.0273C183.613 50.8242 183.207 50.7227 182.73 50.7227C182.254 50.7227 181.848 50.8242 181.512 51.0273C181.184 51.2305 180.914 51.5117 180.703 51.8711C180.5 52.2227 180.352 52.6289 180.258 53.0898C180.164 53.543 180.117 54.0273 180.117 54.543ZM198.855 48.3203H201.914V60.5781C201.914 61.7344 201.656 62.7148 201.141 63.5195C200.633 64.332 199.922 64.9453 199.008 65.3594C198.094 65.7812 197.031 65.9922 195.82 65.9922C195.289 65.9922 194.727 65.9219 194.133 65.7812C193.547 65.6406 192.984 65.4219 192.445 65.125C191.914 64.8281 191.469 64.4531 191.109 64L192.598 62.0078C192.988 62.4609 193.441 62.8125 193.957 63.0625C194.473 63.3203 195.043 63.4492 195.668 63.4492C196.277 63.4492 196.793 63.3359 197.215 63.1094C197.637 62.8906 197.961 62.5664 198.188 62.1367C198.414 61.7148 198.527 61.2031 198.527 60.6016V51.25L198.855 48.3203ZM190.324 54.8125V54.5664C190.324 53.5977 190.441 52.7188 190.676 51.9297C190.918 51.1328 191.258 50.4492 191.695 49.8789C192.141 49.3086 192.68 48.8672 193.312 48.5547C193.945 48.2422 194.66 48.0859 195.457 48.0859C196.301 48.0859 197.008 48.2422 197.578 48.5547C198.148 48.8672 198.617 49.3125 198.984 49.8906C199.352 50.4609 199.637 51.1367 199.84 51.918C200.051 52.6914 200.215 53.5391 200.332 54.4609V55C200.215 55.8828 200.039 56.7031 199.805 57.4609C199.57 58.2188 199.262 58.8828 198.879 59.4531C198.496 60.0156 198.02 60.4531 197.449 60.7656C196.887 61.0781 196.215 61.2344 195.434 61.2344C194.652 61.2344 193.945 61.0742 193.312 60.7539C192.688 60.4336 192.152 59.9844 191.707 59.4062C191.262 58.8281 190.918 58.1484 190.676 57.3672C190.441 56.5859 190.324 55.7344 190.324 54.8125ZM193.699 54.5664V54.8125C193.699 55.3359 193.75 55.8242 193.852 56.2773C193.953 56.7305 194.109 57.1328 194.32 57.4844C194.539 57.8281 194.809 58.0977 195.129 58.293C195.457 58.4805 195.844 58.5742 196.289 58.5742C196.906 58.5742 197.41 58.4453 197.801 58.1875C198.191 57.9219 198.484 57.5586 198.68 57.0977C198.875 56.6367 198.988 56.1055 199.02 55.5039V53.9688C199.004 53.4766 198.938 53.0352 198.82 52.6445C198.703 52.2461 198.539 51.9062 198.328 51.625C198.117 51.3438 197.844 51.125 197.508 50.9688C197.172 50.8125 196.773 50.7344 196.312 50.7344C195.867 50.7344 195.48 50.8359 195.152 51.0391C194.832 51.2344 194.562 51.5039 194.344 51.8477C194.133 52.1914 193.973 52.5977 193.863 53.0664C193.754 53.5273 193.699 54.0273 193.699 54.5664ZM207.914 51.0859V61H204.539V48.3203H207.715L207.914 51.0859ZM211.734 48.2383L211.676 51.3672C211.512 51.3438 211.312 51.3242 211.078 51.3086C210.852 51.2852 210.645 51.2734 210.457 51.2734C209.98 51.2734 209.566 51.3359 209.215 51.4609C208.871 51.5781 208.582 51.7539 208.348 51.9883C208.121 52.2227 207.949 52.5078 207.832 52.8438C207.723 53.1797 207.66 53.5625 207.645 53.9922L206.965 53.7812C206.965 52.9609 207.047 52.207 207.211 51.5195C207.375 50.8242 207.613 50.2188 207.926 49.7031C208.246 49.1875 208.637 48.7891 209.098 48.5078C209.559 48.2266 210.086 48.0859 210.68 48.0859C210.867 48.0859 211.059 48.1016 211.254 48.1328C211.449 48.1562 211.609 48.1914 211.734 48.2383ZM219.773 58.1406V52.4922C219.773 52.0859 219.707 51.7383 219.574 51.4492C219.441 51.1523 219.234 50.9219 218.953 50.7578C218.68 50.5938 218.324 50.5117 217.887 50.5117C217.512 50.5117 217.188 50.5781 216.914 50.7109C216.641 50.8359 216.43 51.0195 216.281 51.2617C216.133 51.4961 216.059 51.7734 216.059 52.0938H212.684C212.684 51.5547 212.809 51.043 213.059 50.5586C213.309 50.0742 213.672 49.6484 214.148 49.2812C214.625 48.9062 215.191 48.6133 215.848 48.4023C216.512 48.1914 217.254 48.0859 218.074 48.0859C219.059 48.0859 219.934 48.25 220.699 48.5781C221.465 48.9062 222.066 49.3984 222.504 50.0547C222.949 50.7109 223.172 51.5312 223.172 52.5156V57.9414C223.172 58.6367 223.215 59.207 223.301 59.6523C223.387 60.0898 223.512 60.4727 223.676 60.8008V61H220.266C220.102 60.6562 219.977 60.2266 219.891 59.7109C219.812 59.1875 219.773 58.6641 219.773 58.1406ZM220.219 53.2773L220.242 55.1875H218.355C217.91 55.1875 217.523 55.2383 217.195 55.3398C216.867 55.4414 216.598 55.5859 216.387 55.7734C216.176 55.9531 216.02 56.1641 215.918 56.4062C215.824 56.6484 215.777 56.9141 215.777 57.2031C215.777 57.4922 215.844 57.7539 215.977 57.9883C216.109 58.2148 216.301 58.3945 216.551 58.5273C216.801 58.6523 217.094 58.7148 217.43 58.7148C217.938 58.7148 218.379 58.6133 218.754 58.4102C219.129 58.207 219.418 57.957 219.621 57.6602C219.832 57.3633 219.941 57.082 219.949 56.8164L220.84 58.2461C220.715 58.5664 220.543 58.8984 220.324 59.2422C220.113 59.5859 219.844 59.9102 219.516 60.2148C219.188 60.5117 218.793 60.7578 218.332 60.9531C217.871 61.1406 217.324 61.2344 216.691 61.2344C215.887 61.2344 215.156 61.0742 214.5 60.7539C213.852 60.4258 213.336 59.9766 212.953 59.4062C212.578 58.8281 212.391 58.1719 212.391 57.4375C212.391 56.7734 212.516 56.1836 212.766 55.668C213.016 55.1523 213.383 54.7188 213.867 54.3672C214.359 54.0078 214.973 53.7383 215.707 53.5586C216.441 53.3711 217.293 53.2773 218.262 53.2773H220.219ZM229.148 50.7578V65.875H225.773V48.3203H228.902L229.148 50.7578ZM237.176 54.5195V54.7656C237.176 55.6875 237.066 56.543 236.848 57.332C236.637 58.1211 236.324 58.8086 235.91 59.3945C235.496 59.9727 234.98 60.4258 234.363 60.7539C233.754 61.0742 233.051 61.2344 232.254 61.2344C231.48 61.2344 230.809 61.0781 230.238 60.7656C229.668 60.4531 229.188 60.0156 228.797 59.4531C228.414 58.8828 228.105 58.2227 227.871 57.4727C227.637 56.7227 227.457 55.918 227.332 55.0586V54.4141C227.457 53.4922 227.637 52.6484 227.871 51.8828C228.105 51.1094 228.414 50.4414 228.797 49.8789C229.188 49.3086 229.664 48.8672 230.227 48.5547C230.797 48.2422 231.465 48.0859 232.23 48.0859C233.035 48.0859 233.742 48.2383 234.352 48.543C234.969 48.8477 235.484 49.2852 235.898 49.8555C236.32 50.4258 236.637 51.1055 236.848 51.8945C237.066 52.6836 237.176 53.5586 237.176 54.5195ZM233.789 54.7656V54.5195C233.789 53.9805 233.742 53.4844 233.648 53.0312C233.562 52.5703 233.422 52.168 233.227 51.8242C233.039 51.4805 232.789 51.2148 232.477 51.0273C232.172 50.832 231.801 50.7344 231.363 50.7344C230.902 50.7344 230.508 50.8086 230.18 50.957C229.859 51.1055 229.598 51.3203 229.395 51.6016C229.191 51.8828 229.039 52.2188 228.938 52.6094C228.836 53 228.773 53.4414 228.75 53.9336V55.5625C228.789 56.1406 228.898 56.6602 229.078 57.1211C229.258 57.5742 229.535 57.9336 229.91 58.1992C230.285 58.4648 230.777 58.5977 231.387 58.5977C231.832 58.5977 232.207 58.5 232.512 58.3047C232.816 58.1016 233.062 57.8242 233.25 57.4727C233.445 57.1211 233.582 56.7148 233.66 56.2539C233.746 55.793 233.789 55.2969 233.789 54.7656ZM242.566 43V61H239.191V43H242.566ZM242.086 54.2148H241.16C241.168 53.332 241.285 52.5195 241.512 51.7773C241.738 51.0273 242.062 50.3789 242.484 49.832C242.906 49.2773 243.41 48.8477 243.996 48.543C244.59 48.2383 245.246 48.0859 245.965 48.0859C246.59 48.0859 247.156 48.1758 247.664 48.3555C248.18 48.5273 248.621 48.8086 248.988 49.1992C249.363 49.582 249.652 50.0859 249.855 50.7109C250.059 51.3359 250.16 52.0938 250.16 52.9844V61H246.762V52.9609C246.762 52.3984 246.68 51.957 246.516 51.6367C246.359 51.3086 246.129 51.0781 245.824 50.9453C245.527 50.8047 245.16 50.7344 244.723 50.7344C244.238 50.7344 243.824 50.8242 243.48 51.0039C243.145 51.1836 242.875 51.4336 242.672 51.7539C242.469 52.0664 242.32 52.4336 242.227 52.8555C242.133 53.2773 242.086 53.7305 242.086 54.2148Z" fill="#888888"/>
<path d="M110.062 92.0469L101.742 119H92.9062L105.445 84.875H111.047L110.062 92.0469ZM116.953 119L108.609 92.0469L107.531 84.875H113.203L125.812 119H116.953ZM116.625 106.273V112.625H99.1172V106.273H116.625ZM135.258 115.906L142.055 84.875H146.109L148.312 87.5234L141.07 119H136.594L135.258 115.906ZM133.453 84.875L139.195 116.141L137.719 119H132.539L125.297 84.875H133.453ZM152.039 115.977L157.734 84.875H165.867L158.625 119H153.469L152.039 115.977ZM149.039 84.875L156 116.094L154.594 119H150.117L142.711 87.4766L145.008 84.875H149.039ZM186.68 109.93C186.68 109.398 186.602 108.922 186.445 108.5C186.289 108.062 186 107.656 185.578 107.281C185.156 106.906 184.547 106.531 183.75 106.156C182.969 105.766 181.938 105.359 180.656 104.938C179.156 104.438 177.711 103.875 176.32 103.25C174.93 102.609 173.688 101.867 172.594 101.023C171.5 100.164 170.633 99.1641 169.992 98.0234C169.352 96.8672 169.031 95.5234 169.031 93.9922C169.031 92.5234 169.359 91.2031 170.016 90.0312C170.672 88.8438 171.586 87.8359 172.758 87.0078C173.945 86.1641 175.336 85.5234 176.93 85.0859C178.523 84.6328 180.266 84.4062 182.156 84.4062C184.656 84.4062 186.859 84.8438 188.766 85.7188C190.688 86.5781 192.188 87.8047 193.266 89.3984C194.359 90.9766 194.906 92.8438 194.906 95H186.727C186.727 94.1406 186.547 93.3828 186.188 92.7266C185.844 92.0703 185.32 91.5547 184.617 91.1797C183.914 90.8047 183.031 90.6172 181.969 90.6172C180.938 90.6172 180.07 90.7734 179.367 91.0859C178.664 91.3984 178.133 91.8203 177.773 92.3516C177.414 92.8672 177.234 93.4375 177.234 94.0625C177.234 94.5781 177.375 95.0469 177.656 95.4688C177.953 95.875 178.367 96.2578 178.898 96.6172C179.445 96.9766 180.102 97.3203 180.867 97.6484C181.648 97.9766 182.523 98.2969 183.492 98.6094C185.305 99.1875 186.914 99.8359 188.32 100.555C189.742 101.258 190.938 102.062 191.906 102.969C192.891 103.859 193.633 104.875 194.133 106.016C194.648 107.156 194.906 108.445 194.906 109.883C194.906 111.414 194.609 112.773 194.016 113.961C193.422 115.148 192.57 116.156 191.461 116.984C190.352 117.797 189.023 118.414 187.477 118.836C185.93 119.258 184.203 119.469 182.297 119.469C180.547 119.469 178.82 119.25 177.117 118.812C175.43 118.359 173.898 117.672 172.523 116.75C171.148 115.812 170.047 114.617 169.219 113.164C168.406 111.695 168 109.953 168 107.938H176.25C176.25 108.938 176.383 109.781 176.648 110.469C176.914 111.156 177.305 111.711 177.82 112.133C178.336 112.539 178.969 112.836 179.719 113.023C180.469 113.195 181.328 113.281 182.297 113.281C183.344 113.281 184.188 113.133 184.828 112.836C185.469 112.523 185.938 112.117 186.234 111.617C186.531 111.102 186.68 110.539 186.68 109.93ZM222.188 119H214.617L214.664 112.672H222.188C223.75 112.672 225.07 112.297 226.148 111.547C227.242 110.797 228.07 109.68 228.633 108.195C229.211 106.695 229.5 104.852 229.5 102.664V101.188C229.5 99.5469 229.336 98.1094 229.008 96.875C228.695 95.625 228.227 94.5859 227.602 93.7578C226.977 92.9141 226.195 92.2812 225.258 91.8594C224.336 91.4375 223.273 91.2266 222.07 91.2266H214.477V84.875H222.07C224.383 84.875 226.5 85.2734 228.422 86.0703C230.359 86.8516 232.031 87.9766 233.438 89.4453C234.859 90.8984 235.953 92.625 236.719 94.625C237.5 96.6094 237.891 98.8125 237.891 101.234V102.664C237.891 105.07 237.5 107.273 236.719 109.273C235.953 111.273 234.867 113 233.461 114.453C232.055 115.906 230.391 117.031 228.469 117.828C226.562 118.609 224.469 119 222.188 119ZM219.328 84.875V119H211.102V84.875H219.328ZM254.086 119.469C252.023 119.469 250.18 119.148 248.555 118.508C246.93 117.852 245.555 116.953 244.43 115.812C243.32 114.672 242.469 113.359 241.875 111.875C241.297 110.391 241.008 108.82 241.008 107.164V106.273C241.008 104.414 241.266 102.695 241.781 101.117C242.297 99.5234 243.062 98.1328 244.078 96.9453C245.094 95.7578 246.367 94.8359 247.898 94.1797C249.43 93.5078 251.211 93.1719 253.242 93.1719C255.039 93.1719 256.648 93.4609 258.07 94.0391C259.492 94.6172 260.695 95.4453 261.68 96.5234C262.68 97.6016 263.438 98.9062 263.953 100.438C264.484 101.969 264.75 103.688 264.75 105.594V108.805H244.031V103.859H257.039V103.25C257.055 102.406 256.906 101.688 256.594 101.094C256.297 100.5 255.859 100.047 255.281 99.7344C254.703 99.4219 254 99.2656 253.172 99.2656C252.312 99.2656 251.602 99.4531 251.039 99.8281C250.492 100.203 250.062 100.719 249.75 101.375C249.453 102.016 249.242 102.758 249.117 103.602C248.992 104.445 248.93 105.336 248.93 106.273V107.164C248.93 108.102 249.055 108.953 249.305 109.719C249.57 110.484 249.945 111.141 250.43 111.688C250.93 112.219 251.523 112.633 252.211 112.93C252.914 113.227 253.711 113.375 254.602 113.375C255.68 113.375 256.742 113.172 257.789 112.766C258.836 112.359 259.734 111.688 260.484 110.75L264.07 115.016C263.555 115.75 262.82 116.461 261.867 117.148C260.93 117.836 259.805 118.398 258.492 118.836C257.18 119.258 255.711 119.469 254.086 119.469ZM275.93 98.5156V128.75H268.031V93.6406H275.391L275.93 98.5156ZM291.492 106.016V106.508C291.492 108.352 291.281 110.062 290.859 111.641C290.438 113.219 289.812 114.594 288.984 115.766C288.156 116.938 287.125 117.852 285.891 118.508C284.672 119.148 283.258 119.469 281.648 119.469C280.133 119.469 278.828 119.133 277.734 118.461C276.641 117.789 275.727 116.859 274.992 115.672C274.258 114.484 273.664 113.125 273.211 111.594C272.758 110.062 272.398 108.445 272.133 106.742V106.109C272.398 104.281 272.758 102.586 273.211 101.023C273.664 99.4453 274.258 98.0703 274.992 96.8984C275.727 95.7266 276.633 94.8125 277.711 94.1562C278.805 93.5 280.109 93.1719 281.625 93.1719C283.234 93.1719 284.648 93.4766 285.867 94.0859C287.102 94.6953 288.133 95.5703 288.961 96.7109C289.805 97.8359 290.438 99.1875 290.859 100.766C291.281 102.344 291.492 104.094 291.492 106.016ZM283.594 106.508V106.016C283.594 105.031 283.523 104.133 283.383 103.32C283.242 102.492 283.016 101.773 282.703 101.164C282.406 100.555 282.008 100.086 281.508 99.7578C281.008 99.4297 280.391 99.2656 279.656 99.2656C278.812 99.2656 278.102 99.3984 277.523 99.6641C276.961 99.9141 276.508 100.305 276.164 100.836C275.836 101.352 275.602 102 275.461 102.781C275.336 103.547 275.281 104.445 275.297 105.477V107.398C275.266 108.586 275.383 109.633 275.648 110.539C275.914 111.43 276.375 112.125 277.031 112.625C277.688 113.125 278.578 113.375 279.703 113.375C280.453 113.375 281.078 113.203 281.578 112.859C282.078 112.5 282.477 112.008 282.773 111.383C283.07 110.742 283.281 110.008 283.406 109.18C283.531 108.352 283.594 107.461 283.594 106.508ZM303.352 83V119H295.43V83H303.352ZM307.242 106.578V106.086C307.242 104.227 307.508 102.516 308.039 100.953C308.57 99.375 309.352 98.0078 310.383 96.8516C311.414 95.6953 312.688 94.7969 314.203 94.1562C315.719 93.5 317.469 93.1719 319.453 93.1719C321.453 93.1719 323.211 93.5 324.727 94.1562C326.258 94.7969 327.539 95.6953 328.57 96.8516C329.602 98.0078 330.383 99.375 330.914 100.953C331.445 102.516 331.711 104.227 331.711 106.086V106.578C331.711 108.422 331.445 110.133 330.914 111.711C330.383 113.273 329.602 114.641 328.57 115.812C327.539 116.969 326.266 117.867 324.75 118.508C323.234 119.148 321.484 119.469 319.5 119.469C317.516 119.469 315.758 119.148 314.227 118.508C312.695 117.867 311.414 116.969 310.383 115.812C309.352 114.641 308.57 113.273 308.039 111.711C307.508 110.133 307.242 108.422 307.242 106.578ZM315.141 106.086V106.578C315.141 107.531 315.211 108.422 315.352 109.25C315.492 110.078 315.727 110.805 316.055 111.43C316.383 112.039 316.828 112.516 317.391 112.859C317.953 113.203 318.656 113.375 319.5 113.375C320.328 113.375 321.016 113.203 321.562 112.859C322.125 112.516 322.57 112.039 322.898 111.43C323.227 110.805 323.461 110.078 323.602 109.25C323.742 108.422 323.812 107.531 323.812 106.578V106.086C323.812 105.164 323.742 104.297 323.602 103.484C323.461 102.656 323.227 101.93 322.898 101.305C322.57 100.664 322.125 100.164 321.562 99.8047C321 99.4453 320.297 99.2656 319.453 99.2656C318.625 99.2656 317.93 99.4453 317.367 99.8047C316.82 100.164 316.383 100.664 316.055 101.305C315.727 101.93 315.492 102.656 315.352 103.484C315.211 104.297 315.141 105.164 315.141 106.086ZM342.633 116.023L349.195 93.6406H357.68L347.484 122.773C347.266 123.414 346.977 124.102 346.617 124.836C346.258 125.586 345.766 126.297 345.141 126.969C344.516 127.641 343.711 128.188 342.727 128.609C341.758 129.031 340.555 129.242 339.117 129.242C338.352 129.242 337.789 129.203 337.43 129.125C337.086 129.062 336.555 128.945 335.836 128.773V123.125C336.039 123.125 336.211 123.125 336.352 123.125C336.508 123.125 336.68 123.125 336.867 123.125C337.711 123.125 338.383 123.039 338.883 122.867C339.398 122.695 339.789 122.445 340.055 122.117C340.336 121.789 340.555 121.391 340.711 120.922L342.633 116.023ZM340.969 93.6406L345.961 111.383L346.828 119.75H341.531L332.508 93.6406H340.969ZM367.711 99.0078V119H359.812V93.6406H367.219L367.711 99.0078ZM366.75 105.453L364.945 105.5C364.945 103.719 365.156 102.078 365.578 100.578C366 99.0781 366.625 97.7734 367.453 96.6641C368.281 95.5547 369.297 94.6953 370.5 94.0859C371.719 93.4766 373.125 93.1719 374.719 93.1719C375.828 93.1719 376.836 93.3438 377.742 93.6875C378.648 94.0156 379.43 94.5391 380.086 95.2578C380.742 95.9609 381.242 96.8828 381.586 98.0234C381.945 99.1484 382.125 100.5 382.125 102.078V119H374.227V103.086C374.227 102.008 374.102 101.195 373.852 100.648C373.617 100.102 373.273 99.7344 372.82 99.5469C372.367 99.3594 371.812 99.2656 371.156 99.2656C370.469 99.2656 369.852 99.4219 369.305 99.7344C368.758 100.047 368.289 100.484 367.898 101.047C367.523 101.594 367.234 102.242 367.031 102.992C366.844 103.742 366.75 104.562 366.75 105.453ZM381.234 105.453L379.031 105.5C379.031 103.719 379.227 102.078 379.617 100.578C380.023 99.0781 380.625 97.7734 381.422 96.6641C382.234 95.5547 383.242 94.6953 384.445 94.0859C385.648 93.4766 387.047 93.1719 388.641 93.1719C389.797 93.1719 390.859 93.3438 391.828 93.6875C392.797 94.0312 393.633 94.5859 394.336 95.3516C395.039 96.1172 395.586 97.1328 395.977 98.3984C396.367 99.6484 396.562 101.195 396.562 103.039V119H388.641V103.039C388.641 101.992 388.516 101.203 388.266 100.672C388.031 100.125 387.688 99.7578 387.234 99.5703C386.781 99.3672 386.242 99.2656 385.617 99.2656C384.867 99.2656 384.219 99.4219 383.672 99.7344C383.125 100.047 382.664 100.484 382.289 101.047C381.93 101.594 381.664 102.242 381.492 102.992C381.32 103.742 381.234 104.562 381.234 105.453ZM413.367 119.469C411.305 119.469 409.461 119.148 407.836 118.508C406.211 117.852 404.836 116.953 403.711 115.812C402.602 114.672 401.75 113.359 401.156 111.875C400.578 110.391 400.289 108.82 400.289 107.164V106.273C400.289 104.414 400.547 102.695 401.062 101.117C401.578 99.5234 402.344 98.1328 403.359 96.9453C404.375 95.7578 405.648 94.8359 407.18 94.1797C408.711 93.5078 410.492 93.1719 412.523 93.1719C414.32 93.1719 415.93 93.4609 417.352 94.0391C418.773 94.6172 419.977 95.4453 420.961 96.5234C421.961 97.6016 422.719 98.9062 423.234 100.438C423.766 101.969 424.031 103.688 424.031 105.594V108.805H403.312V103.859H416.32V103.25C416.336 102.406 416.188 101.688 415.875 101.094C415.578 100.5 415.141 100.047 414.562 99.7344C413.984 99.4219 413.281 99.2656 412.453 99.2656C411.594 99.2656 410.883 99.4531 410.32 99.8281C409.773 100.203 409.344 100.719 409.031 101.375C408.734 102.016 408.523 102.758 408.398 103.602C408.273 104.445 408.211 105.336 408.211 106.273V107.164C408.211 108.102 408.336 108.953 408.586 109.719C408.852 110.484 409.227 111.141 409.711 111.688C410.211 112.219 410.805 112.633 411.492 112.93C412.195 113.227 412.992 113.375 413.883 113.375C414.961 113.375 416.023 113.172 417.07 112.766C418.117 112.359 419.016 111.688 419.766 110.75L423.352 115.016C422.836 115.75 422.102 116.461 421.148 117.148C420.211 117.836 419.086 118.398 417.773 118.836C416.461 119.258 414.992 119.469 413.367 119.469ZM435 99.0547V119H427.102V93.6406H434.508L435 99.0547ZM434.062 105.453L432.211 105.5C432.211 103.562 432.445 101.836 432.914 100.32C433.383 98.7891 434.047 97.4922 434.906 96.4297C435.766 95.3672 436.789 94.5625 437.977 94.0156C439.18 93.4531 440.516 93.1719 441.984 93.1719C443.156 93.1719 444.227 93.3438 445.195 93.6875C446.18 94.0312 447.023 94.5859 447.727 95.3516C448.445 96.1172 448.992 97.1328 449.367 98.3984C449.758 99.6484 449.953 101.195 449.953 103.039V119H442.008V103.016C442.008 102 441.867 101.227 441.586 100.695C441.305 100.148 440.898 99.7734 440.367 99.5703C439.836 99.3672 439.188 99.2656 438.422 99.2656C437.609 99.2656 436.922 99.4219 436.359 99.7344C435.797 100.047 435.344 100.484 435 101.047C434.672 101.594 434.43 102.242 434.273 102.992C434.133 103.742 434.062 104.562 434.062 105.453ZM467.695 93.6406V99.125H452.414V93.6406H467.695ZM455.625 87.3359H463.523V110.727C463.523 111.398 463.602 111.922 463.758 112.297C463.914 112.656 464.18 112.914 464.555 113.07C464.945 113.211 465.461 113.281 466.102 113.281C466.555 113.281 466.93 113.273 467.227 113.258C467.523 113.227 467.805 113.188 468.07 113.141V118.789C467.398 119.008 466.695 119.172 465.961 119.281C465.227 119.406 464.445 119.469 463.617 119.469C461.93 119.469 460.484 119.203 459.281 118.672C458.094 118.141 457.188 117.305 456.562 116.164C455.938 115.023 455.625 113.539 455.625 111.711V87.3359Z" fill="black"/>
<path d="M1134 0H1348C1356.28 0 1363 6.71573 1363 15V148C1363 156.284 1356.28 163 1348 163H1134V0Z" fill="black"/>
<path d="M1212.5 117.5L1212.5 45.5L1284.5 45.5L1284.5 117.5L1212.5 117.5Z" fill="white" fill-opacity="0.01"/>
<path d="M1221.5 81.5125L1221.5 108.5L1275.5 108.5L1275.5 81.5" stroke="white" stroke-width="7.24" stroke-linecap="round" stroke-linejoin="round"/>
<path d="M1262 68L1248.5 54.5L1235 68" stroke="white" stroke-width="7.24" stroke-linecap="round" stroke-linejoin="round"/>
<path d="M1248.49 93.5L1248.49 54.5" stroke="white" stroke-width="7.24" stroke-linecap="round" stroke-linejoin="round"/>
</svg>
