<svg width="1363" height="163" viewBox="0 0 1363 163" fill="none" xmlns="http://www.w3.org/2000/svg">
<path d="M0 15C0 6.71573 6.71573 0 15 0H37V163H15C6.71573 163 0 156.284 0 148V15Z" fill="#424242"/>
<rect width="1097" height="163" transform="translate(37)" fill="#F0F0F0"/>
<path d="M101.906 53.9219L94.3945 51.2383V48.0859L104.602 52.375V54.6367L101.906 53.9219ZM94.3945 56.1719L101.918 53.4297L104.602 52.7852V55.0352L94.3945 59.3242V56.1719ZM122.789 55.3398H126.293C126.223 56.4883 125.906 57.5078 125.344 58.3984C124.789 59.2891 124.012 59.9844 123.012 60.4844C122.02 60.9844 120.824 61.2344 119.426 61.2344C118.332 61.2344 117.352 61.0469 116.484 60.6719C115.617 60.2891 114.875 59.7422 114.258 59.0312C113.648 58.3203 113.184 57.4609 112.863 56.4531C112.543 55.4453 112.383 54.3164 112.383 53.0664V51.8828C112.383 50.6328 112.547 49.5039 112.875 48.4961C113.211 47.4805 113.688 46.6172 114.305 45.9062C114.93 45.1953 115.676 44.6484 116.543 44.2656C117.41 43.8828 118.379 43.6914 119.449 43.6914C120.871 43.6914 122.07 43.9492 123.047 44.4648C124.031 44.9805 124.793 45.6914 125.332 46.5977C125.879 47.5039 126.207 48.5352 126.316 49.6914H122.801C122.762 49.0039 122.625 48.4219 122.391 47.9453C122.156 47.4609 121.801 47.0977 121.324 46.8555C120.855 46.6055 120.23 46.4805 119.449 46.4805C118.863 46.4805 118.352 46.5898 117.914 46.8086C117.477 47.0273 117.109 47.3594 116.812 47.8047C116.516 48.25 116.293 48.8125 116.145 49.4922C116.004 50.1641 115.934 50.9531 115.934 51.8594V53.0664C115.934 53.9492 116 54.7266 116.133 55.3984C116.266 56.0625 116.469 56.625 116.742 57.0859C117.023 57.5391 117.383 57.8828 117.82 58.1172C118.266 58.3438 118.801 58.457 119.426 58.457C120.16 58.457 120.766 58.3398 121.242 58.1055C121.719 57.8711 122.082 57.5234 122.332 57.0625C122.59 56.6016 122.742 56.0273 122.789 55.3398ZM131.684 43V61H128.309V43H131.684ZM131.203 54.2148H130.277C130.285 53.332 130.402 52.5195 130.629 51.7773C130.855 51.0273 131.18 50.3789 131.602 49.832C132.023 49.2773 132.527 48.8477 133.113 48.543C133.707 48.2383 134.363 48.0859 135.082 48.0859C135.707 48.0859 136.273 48.1758 136.781 48.3555C137.297 48.5273 137.738 48.8086 138.105 49.1992C138.48 49.582 138.77 50.0859 138.973 50.7109C139.176 51.3359 139.277 52.0938 139.277 52.9844V61H135.879V52.9609C135.879 52.3984 135.797 51.957 135.633 51.6367C135.477 51.3086 135.246 51.0781 134.941 50.9453C134.645 50.8047 134.277 50.7344 133.84 50.7344C133.355 50.7344 132.941 50.8242 132.598 51.0039C132.262 51.1836 131.992 51.4336 131.789 51.7539C131.586 52.0664 131.438 52.4336 131.344 52.8555C131.25 53.2773 131.203 53.7305 131.203 54.2148ZM145.219 51.0859V61H141.844V48.3203H145.02L145.219 51.0859ZM149.039 48.2383L148.98 51.3672C148.816 51.3438 148.617 51.3242 148.383 51.3086C148.156 51.2852 147.949 51.2734 147.762 51.2734C147.285 51.2734 146.871 51.3359 146.52 51.4609C146.176 51.5781 145.887 51.7539 145.652 51.9883C145.426 52.2227 145.254 52.5078 145.137 52.8438C145.027 53.1797 144.965 53.5625 144.949 53.9922L144.27 53.7812C144.27 52.9609 144.352 52.207 144.516 51.5195C144.68 50.8242 144.918 50.2188 145.23 49.7031C145.551 49.1875 145.941 48.7891 146.402 48.5078C146.863 48.2266 147.391 48.0859 147.984 48.0859C148.172 48.0859 148.363 48.1016 148.559 48.1328C148.754 48.1562 148.914 48.1914 149.039 48.2383ZM149.742 54.7891V54.543C149.742 53.6133 149.875 52.7578 150.141 51.9766C150.406 51.1875 150.793 50.5039 151.301 49.9258C151.809 49.3477 152.434 48.8984 153.176 48.5781C153.918 48.25 154.77 48.0859 155.73 48.0859C156.691 48.0859 157.547 48.25 158.297 48.5781C159.047 48.8984 159.676 49.3477 160.184 49.9258C160.699 50.5039 161.09 51.1875 161.355 51.9766C161.621 52.7578 161.754 53.6133 161.754 54.543V54.7891C161.754 55.7109 161.621 56.5664 161.355 57.3555C161.09 58.1367 160.699 58.8203 160.184 59.4062C159.676 59.9844 159.051 60.4336 158.309 60.7539C157.566 61.0742 156.715 61.2344 155.754 61.2344C154.793 61.2344 153.938 61.0742 153.188 60.7539C152.445 60.4336 151.816 59.9844 151.301 59.4062C150.793 58.8203 150.406 58.1367 150.141 57.3555C149.875 56.5664 149.742 55.7109 149.742 54.7891ZM153.117 54.543V54.7891C153.117 55.3203 153.164 55.8164 153.258 56.2773C153.352 56.7383 153.5 57.1445 153.703 57.4961C153.914 57.8398 154.188 58.1094 154.523 58.3047C154.859 58.5 155.27 58.5977 155.754 58.5977C156.223 58.5977 156.625 58.5 156.961 58.3047C157.297 58.1094 157.566 57.8398 157.77 57.4961C157.973 57.1445 158.121 56.7383 158.215 56.2773C158.316 55.8164 158.367 55.3203 158.367 54.7891V54.543C158.367 54.0273 158.316 53.543 158.215 53.0898C158.121 52.6289 157.969 52.2227 157.758 51.8711C157.555 51.5117 157.285 51.2305 156.949 51.0273C156.613 50.8242 156.207 50.7227 155.73 50.7227C155.254 50.7227 154.848 50.8242 154.512 51.0273C154.184 51.2305 153.914 51.5117 153.703 51.8711C153.5 52.2227 153.352 52.6289 153.258 53.0898C153.164 53.543 153.117 54.0273 153.117 54.543ZM167.133 51.0273V61H163.758V48.3203H166.922L167.133 51.0273ZM166.641 54.2148H165.727C165.727 53.2773 165.848 52.4336 166.09 51.6836C166.332 50.9258 166.672 50.2812 167.109 49.75C167.547 49.2109 168.066 48.8008 168.668 48.5195C169.277 48.2305 169.957 48.0859 170.707 48.0859C171.301 48.0859 171.844 48.1719 172.336 48.3438C172.828 48.5156 173.25 48.7891 173.602 49.1641C173.961 49.5391 174.234 50.0352 174.422 50.6523C174.617 51.2695 174.715 52.0234 174.715 52.9141V61H171.316V52.9023C171.316 52.3398 171.238 51.9023 171.082 51.5898C170.926 51.2773 170.695 51.0586 170.391 50.9336C170.094 50.8008 169.727 50.7344 169.289 50.7344C168.836 50.7344 168.441 50.8242 168.105 51.0039C167.777 51.1836 167.504 51.4336 167.285 51.7539C167.074 52.0664 166.914 52.4336 166.805 52.8555C166.695 53.2773 166.641 53.7305 166.641 54.2148ZM176.742 54.7891V54.543C176.742 53.6133 176.875 52.7578 177.141 51.9766C177.406 51.1875 177.793 50.5039 178.301 49.9258C178.809 49.3477 179.434 48.8984 180.176 48.5781C180.918 48.25 181.77 48.0859 182.73 48.0859C183.691 48.0859 184.547 48.25 185.297 48.5781C186.047 48.8984 186.676 49.3477 187.184 49.9258C187.699 50.5039 188.09 51.1875 188.355 51.9766C188.621 52.7578 188.754 53.6133 188.754 54.543V54.7891C188.754 55.7109 188.621 56.5664 188.355 57.3555C188.09 58.1367 187.699 58.8203 187.184 59.4062C186.676 59.9844 186.051 60.4336 185.309 60.7539C184.566 61.0742 183.715 61.2344 182.754 61.2344C181.793 61.2344 180.938 61.0742 180.188 60.7539C179.445 60.4336 178.816 59.9844 178.301 59.4062C177.793 58.8203 177.406 58.1367 177.141 57.3555C176.875 56.5664 176.742 55.7109 176.742 54.7891ZM180.117 54.543V54.7891C180.117 55.3203 180.164 55.8164 180.258 56.2773C180.352 56.7383 180.5 57.1445 180.703 57.4961C180.914 57.8398 181.188 58.1094 181.523 58.3047C181.859 58.5 182.27 58.5977 182.754 58.5977C183.223 58.5977 183.625 58.5 183.961 58.3047C184.297 58.1094 184.566 57.8398 184.77 57.4961C184.973 57.1445 185.121 56.7383 185.215 56.2773C185.316 55.8164 185.367 55.3203 185.367 54.7891V54.543C185.367 54.0273 185.316 53.543 185.215 53.0898C185.121 52.6289 184.969 52.2227 184.758 51.8711C184.555 51.5117 184.285 51.2305 183.949 51.0273C183.613 50.8242 183.207 50.7227 182.73 50.7227C182.254 50.7227 181.848 50.8242 181.512 51.0273C181.184 51.2305 180.914 51.5117 180.703 51.8711C180.5 52.2227 180.352 52.6289 180.258 53.0898C180.164 53.543 180.117 54.0273 180.117 54.543ZM198.855 48.3203H201.914V60.5781C201.914 61.7344 201.656 62.7148 201.141 63.5195C200.633 64.332 199.922 64.9453 199.008 65.3594C198.094 65.7812 197.031 65.9922 195.82 65.9922C195.289 65.9922 194.727 65.9219 194.133 65.7812C193.547 65.6406 192.984 65.4219 192.445 65.125C191.914 64.8281 191.469 64.4531 191.109 64L192.598 62.0078C192.988 62.4609 193.441 62.8125 193.957 63.0625C194.473 63.3203 195.043 63.4492 195.668 63.4492C196.277 63.4492 196.793 63.3359 197.215 63.1094C197.637 62.8906 197.961 62.5664 198.188 62.1367C198.414 61.7148 198.527 61.2031 198.527 60.6016V51.25L198.855 48.3203ZM190.324 54.8125V54.5664C190.324 53.5977 190.441 52.7188 190.676 51.9297C190.918 51.1328 191.258 50.4492 191.695 49.8789C192.141 49.3086 192.68 48.8672 193.312 48.5547C193.945 48.2422 194.66 48.0859 195.457 48.0859C196.301 48.0859 197.008 48.2422 197.578 48.5547C198.148 48.8672 198.617 49.3125 198.984 49.8906C199.352 50.4609 199.637 51.1367 199.84 51.918C200.051 52.6914 200.215 53.5391 200.332 54.4609V55C200.215 55.8828 200.039 56.7031 199.805 57.4609C199.57 58.2188 199.262 58.8828 198.879 59.4531C198.496 60.0156 198.02 60.4531 197.449 60.7656C196.887 61.0781 196.215 61.2344 195.434 61.2344C194.652 61.2344 193.945 61.0742 193.312 60.7539C192.688 60.4336 192.152 59.9844 191.707 59.4062C191.262 58.8281 190.918 58.1484 190.676 57.3672C190.441 56.5859 190.324 55.7344 190.324 54.8125ZM193.699 54.5664V54.8125C193.699 55.3359 193.75 55.8242 193.852 56.2773C193.953 56.7305 194.109 57.1328 194.32 57.4844C194.539 57.8281 194.809 58.0977 195.129 58.293C195.457 58.4805 195.844 58.5742 196.289 58.5742C196.906 58.5742 197.41 58.4453 197.801 58.1875C198.191 57.9219 198.484 57.5586 198.68 57.0977C198.875 56.6367 198.988 56.1055 199.02 55.5039V53.9688C199.004 53.4766 198.938 53.0352 198.82 52.6445C198.703 52.2461 198.539 51.9062 198.328 51.625C198.117 51.3438 197.844 51.125 197.508 50.9688C197.172 50.8125 196.773 50.7344 196.312 50.7344C195.867 50.7344 195.48 50.8359 195.152 51.0391C194.832 51.2344 194.562 51.5039 194.344 51.8477C194.133 52.1914 193.973 52.5977 193.863 53.0664C193.754 53.5273 193.699 54.0273 193.699 54.5664ZM207.914 51.0859V61H204.539V48.3203H207.715L207.914 51.0859ZM211.734 48.2383L211.676 51.3672C211.512 51.3438 211.312 51.3242 211.078 51.3086C210.852 51.2852 210.645 51.2734 210.457 51.2734C209.98 51.2734 209.566 51.3359 209.215 51.4609C208.871 51.5781 208.582 51.7539 208.348 51.9883C208.121 52.2227 207.949 52.5078 207.832 52.8438C207.723 53.1797 207.66 53.5625 207.645 53.9922L206.965 53.7812C206.965 52.9609 207.047 52.207 207.211 51.5195C207.375 50.8242 207.613 50.2188 207.926 49.7031C208.246 49.1875 208.637 48.7891 209.098 48.5078C209.559 48.2266 210.086 48.0859 210.68 48.0859C210.867 48.0859 211.059 48.1016 211.254 48.1328C211.449 48.1562 211.609 48.1914 211.734 48.2383ZM219.773 58.1406V52.4922C219.773 52.0859 219.707 51.7383 219.574 51.4492C219.441 51.1523 219.234 50.9219 218.953 50.7578C218.68 50.5938 218.324 50.5117 217.887 50.5117C217.512 50.5117 217.188 50.5781 216.914 50.7109C216.641 50.8359 216.43 51.0195 216.281 51.2617C216.133 51.4961 216.059 51.7734 216.059 52.0938H212.684C212.684 51.5547 212.809 51.043 213.059 50.5586C213.309 50.0742 213.672 49.6484 214.148 49.2812C214.625 48.9062 215.191 48.6133 215.848 48.4023C216.512 48.1914 217.254 48.0859 218.074 48.0859C219.059 48.0859 219.934 48.25 220.699 48.5781C221.465 48.9062 222.066 49.3984 222.504 50.0547C222.949 50.7109 223.172 51.5312 223.172 52.5156V57.9414C223.172 58.6367 223.215 59.207 223.301 59.6523C223.387 60.0898 223.512 60.4727 223.676 60.8008V61H220.266C220.102 60.6562 219.977 60.2266 219.891 59.7109C219.812 59.1875 219.773 58.6641 219.773 58.1406ZM220.219 53.2773L220.242 55.1875H218.355C217.91 55.1875 217.523 55.2383 217.195 55.3398C216.867 55.4414 216.598 55.5859 216.387 55.7734C216.176 55.9531 216.02 56.1641 215.918 56.4062C215.824 56.6484 215.777 56.9141 215.777 57.2031C215.777 57.4922 215.844 57.7539 215.977 57.9883C216.109 58.2148 216.301 58.3945 216.551 58.5273C216.801 58.6523 217.094 58.7148 217.43 58.7148C217.938 58.7148 218.379 58.6133 218.754 58.4102C219.129 58.207 219.418 57.957 219.621 57.6602C219.832 57.3633 219.941 57.082 219.949 56.8164L220.84 58.2461C220.715 58.5664 220.543 58.8984 220.324 59.2422C220.113 59.5859 219.844 59.9102 219.516 60.2148C219.188 60.5117 218.793 60.7578 218.332 60.9531C217.871 61.1406 217.324 61.2344 216.691 61.2344C215.887 61.2344 215.156 61.0742 214.5 60.7539C213.852 60.4258 213.336 59.9766 212.953 59.4062C212.578 58.8281 212.391 58.1719 212.391 57.4375C212.391 56.7734 212.516 56.1836 212.766 55.668C213.016 55.1523 213.383 54.7188 213.867 54.3672C214.359 54.0078 214.973 53.7383 215.707 53.5586C216.441 53.3711 217.293 53.2773 218.262 53.2773H220.219ZM229.148 50.7578V65.875H225.773V48.3203H228.902L229.148 50.7578ZM237.176 54.5195V54.7656C237.176 55.6875 237.066 56.543 236.848 57.332C236.637 58.1211 236.324 58.8086 235.91 59.3945C235.496 59.9727 234.98 60.4258 234.363 60.7539C233.754 61.0742 233.051 61.2344 232.254 61.2344C231.48 61.2344 230.809 61.0781 230.238 60.7656C229.668 60.4531 229.188 60.0156 228.797 59.4531C228.414 58.8828 228.105 58.2227 227.871 57.4727C227.637 56.7227 227.457 55.918 227.332 55.0586V54.4141C227.457 53.4922 227.637 52.6484 227.871 51.8828C228.105 51.1094 228.414 50.4414 228.797 49.8789C229.188 49.3086 229.664 48.8672 230.227 48.5547C230.797 48.2422 231.465 48.0859 232.23 48.0859C233.035 48.0859 233.742 48.2383 234.352 48.543C234.969 48.8477 235.484 49.2852 235.898 49.8555C236.32 50.4258 236.637 51.1055 236.848 51.8945C237.066 52.6836 237.176 53.5586 237.176 54.5195ZM233.789 54.7656V54.5195C233.789 53.9805 233.742 53.4844 233.648 53.0312C233.562 52.5703 233.422 52.168 233.227 51.8242C233.039 51.4805 232.789 51.2148 232.477 51.0273C232.172 50.832 231.801 50.7344 231.363 50.7344C230.902 50.7344 230.508 50.8086 230.18 50.957C229.859 51.1055 229.598 51.3203 229.395 51.6016C229.191 51.8828 229.039 52.2188 228.938 52.6094C228.836 53 228.773 53.4414 228.75 53.9336V55.5625C228.789 56.1406 228.898 56.6602 229.078 57.1211C229.258 57.5742 229.535 57.9336 229.91 58.1992C230.285 58.4648 230.777 58.5977 231.387 58.5977C231.832 58.5977 232.207 58.5 232.512 58.3047C232.816 58.1016 233.062 57.8242 233.25 57.4727C233.445 57.1211 233.582 56.7148 233.66 56.2539C233.746 55.793 233.789 55.2969 233.789 54.7656ZM242.566 43V61H239.191V43H242.566ZM242.086 54.2148H241.16C241.168 53.332 241.285 52.5195 241.512 51.7773C241.738 51.0273 242.062 50.3789 242.484 49.832C242.906 49.2773 243.41 48.8477 243.996 48.543C244.59 48.2383 245.246 48.0859 245.965 48.0859C246.59 48.0859 247.156 48.1758 247.664 48.3555C248.18 48.5273 248.621 48.8086 248.988 49.1992C249.363 49.582 249.652 50.0859 249.855 50.7109C250.059 51.3359 250.16 52.0938 250.16 52.9844V61H246.762V52.9609C246.762 52.3984 246.68 51.957 246.516 51.6367C246.359 51.3086 246.129 51.0781 245.824 50.9453C245.527 50.8047 245.16 50.7344 244.723 50.7344C244.238 50.7344 243.824 50.8242 243.48 51.0039C243.145 51.1836 242.875 51.4336 242.672 51.7539C242.469 52.0664 242.32 52.4336 242.227 52.8555C242.133 53.2773 242.086 53.7305 242.086 54.2148Z" fill="#888888"/>
<path d="M106.688 119H99.1172L99.1641 112.672H106.688C108.25 112.672 109.57 112.297 110.648 111.547C111.742 110.797 112.57 109.68 113.133 108.195C113.711 106.695 114 104.852 114 102.664V101.188C114 99.5469 113.836 98.1094 113.508 96.875C113.195 95.625 112.727 94.5859 112.102 93.7578C111.477 92.9141 110.695 92.2812 109.758 91.8594C108.836 91.4375 107.773 91.2266 106.57 91.2266H98.9766V84.875H106.57C108.883 84.875 111 85.2734 112.922 86.0703C114.859 86.8516 116.531 87.9766 117.938 89.4453C119.359 90.8984 120.453 92.625 121.219 94.625C122 96.6094 122.391 98.8125 122.391 101.234V102.664C122.391 105.07 122 107.273 121.219 109.273C120.453 111.273 119.367 113 117.961 114.453C116.555 115.906 114.891 117.031 112.969 117.828C111.062 118.609 108.969 119 106.688 119ZM103.828 84.875V119H95.6016V84.875H103.828ZM139.477 112.625V102.172C139.477 101.453 139.375 100.836 139.172 100.32C138.969 99.8047 138.648 99.4062 138.211 99.125C137.773 98.8281 137.188 98.6797 136.453 98.6797C135.859 98.6797 135.352 98.7812 134.93 98.9844C134.508 99.1875 134.188 99.4922 133.969 99.8984C133.75 100.305 133.641 100.82 133.641 101.445H125.742C125.742 100.273 126 99.1875 126.516 98.1875C127.047 97.1719 127.797 96.2891 128.766 95.5391C129.75 94.7891 130.922 94.2109 132.281 93.8047C133.656 93.3828 135.188 93.1719 136.875 93.1719C138.891 93.1719 140.688 93.5078 142.266 94.1797C143.859 94.8516 145.117 95.8594 146.039 97.2031C146.961 98.5312 147.422 100.203 147.422 102.219V112.602C147.422 114.258 147.516 115.516 147.703 116.375C147.891 117.219 148.156 117.961 148.5 118.602V119H140.578C140.203 118.219 139.922 117.266 139.734 116.141C139.562 115 139.477 113.828 139.477 112.625ZM140.438 103.508L140.484 107.727H136.992C136.258 107.727 135.633 107.828 135.117 108.031C134.617 108.234 134.211 108.516 133.898 108.875C133.602 109.219 133.383 109.609 133.242 110.047C133.117 110.484 133.055 110.945 133.055 111.43C133.055 111.898 133.164 112.32 133.383 112.695C133.617 113.055 133.93 113.336 134.32 113.539C134.711 113.742 135.148 113.844 135.633 113.844C136.508 113.844 137.25 113.68 137.859 113.352C138.484 113.008 138.961 112.594 139.289 112.109C139.617 111.625 139.781 111.172 139.781 110.75L141.516 113.984C141.203 114.609 140.844 115.242 140.438 115.883C140.047 116.523 139.555 117.117 138.961 117.664C138.383 118.195 137.672 118.633 136.828 118.977C135.984 119.305 134.961 119.469 133.758 119.469C132.195 119.469 130.758 119.148 129.445 118.508C128.148 117.867 127.109 116.977 126.328 115.836C125.547 114.68 125.156 113.352 125.156 111.852C125.156 110.539 125.391 109.367 125.859 108.336C126.344 107.305 127.07 106.43 128.039 105.711C129.008 104.992 130.242 104.445 131.742 104.07C133.242 103.695 135.008 103.508 137.039 103.508H140.438ZM165.164 93.6406V99.125H149.883V93.6406H165.164ZM153.094 87.3359H160.992V110.727C160.992 111.398 161.07 111.922 161.227 112.297C161.383 112.656 161.648 112.914 162.023 113.07C162.414 113.211 162.93 113.281 163.57 113.281C164.023 113.281 164.398 113.273 164.695 113.258C164.992 113.227 165.273 113.188 165.539 113.141V118.789C164.867 119.008 164.164 119.172 163.43 119.281C162.695 119.406 161.914 119.469 161.086 119.469C159.398 119.469 157.953 119.203 156.75 118.672C155.562 118.141 154.656 117.305 154.031 116.164C153.406 115.023 153.094 113.539 153.094 111.711V87.3359ZM181.477 112.625V102.172C181.477 101.453 181.375 100.836 181.172 100.32C180.969 99.8047 180.648 99.4062 180.211 99.125C179.773 98.8281 179.188 98.6797 178.453 98.6797C177.859 98.6797 177.352 98.7812 176.93 98.9844C176.508 99.1875 176.188 99.4922 175.969 99.8984C175.75 100.305 175.641 100.82 175.641 101.445H167.742C167.742 100.273 168 99.1875 168.516 98.1875C169.047 97.1719 169.797 96.2891 170.766 95.5391C171.75 94.7891 172.922 94.2109 174.281 93.8047C175.656 93.3828 177.188 93.1719 178.875 93.1719C180.891 93.1719 182.688 93.5078 184.266 94.1797C185.859 94.8516 187.117 95.8594 188.039 97.2031C188.961 98.5312 189.422 100.203 189.422 102.219V112.602C189.422 114.258 189.516 115.516 189.703 116.375C189.891 117.219 190.156 117.961 190.5 118.602V119H182.578C182.203 118.219 181.922 117.266 181.734 116.141C181.562 115 181.477 113.828 181.477 112.625ZM182.438 103.508L182.484 107.727H178.992C178.258 107.727 177.633 107.828 177.117 108.031C176.617 108.234 176.211 108.516 175.898 108.875C175.602 109.219 175.383 109.609 175.242 110.047C175.117 110.484 175.055 110.945 175.055 111.43C175.055 111.898 175.164 112.32 175.383 112.695C175.617 113.055 175.93 113.336 176.32 113.539C176.711 113.742 177.148 113.844 177.633 113.844C178.508 113.844 179.25 113.68 179.859 113.352C180.484 113.008 180.961 112.594 181.289 112.109C181.617 111.625 181.781 111.172 181.781 110.75L183.516 113.984C183.203 114.609 182.844 115.242 182.438 115.883C182.047 116.523 181.555 117.117 180.961 117.664C180.383 118.195 179.672 118.633 178.828 118.977C177.984 119.305 176.961 119.469 175.758 119.469C174.195 119.469 172.758 119.148 171.445 118.508C170.148 117.867 169.109 116.977 168.328 115.836C167.547 114.68 167.156 113.352 167.156 111.852C167.156 110.539 167.391 109.367 167.859 108.336C168.344 107.305 169.07 106.43 170.039 105.711C171.008 104.992 172.242 104.445 173.742 104.07C175.242 103.695 177.008 103.508 179.039 103.508H182.438ZM193.875 83H201.773V112.766L200.953 119H193.875V83ZM217.336 106.039V106.531C217.336 108.453 217.141 110.203 216.75 111.781C216.359 113.359 215.758 114.727 214.945 115.883C214.133 117.023 213.109 117.906 211.875 118.531C210.641 119.156 209.18 119.469 207.492 119.469C205.961 119.469 204.648 119.141 203.555 118.484C202.461 117.812 201.547 116.891 200.812 115.719C200.078 114.531 199.484 113.164 199.031 111.617C198.578 110.055 198.219 108.383 197.953 106.602V106.016C198.219 104.25 198.578 102.594 199.031 101.047C199.484 99.4844 200.078 98.1172 200.812 96.9453C201.547 95.7578 202.453 94.8359 203.531 94.1797C204.625 93.5078 205.93 93.1719 207.445 93.1719C209.148 93.1719 210.617 93.4922 211.852 94.1328C213.102 94.7734 214.133 95.6719 214.945 96.8281C215.758 97.9844 216.359 99.3438 216.75 100.906C217.141 102.469 217.336 104.18 217.336 106.039ZM209.438 106.531V106.039C209.438 105.117 209.383 104.25 209.273 103.438C209.164 102.625 208.969 101.906 208.688 101.281C208.406 100.656 208.008 100.164 207.492 99.8047C206.977 99.4453 206.305 99.2656 205.477 99.2656C204.633 99.2656 203.922 99.4062 203.344 99.6875C202.781 99.9688 202.328 100.375 201.984 100.906C201.656 101.422 201.422 102.062 201.281 102.828C201.141 103.578 201.078 104.43 201.094 105.383V107.234C201.062 108.531 201.18 109.641 201.445 110.562C201.711 111.484 202.172 112.188 202.828 112.672C203.484 113.156 204.383 113.398 205.523 113.398C206.367 113.398 207.047 113.234 207.562 112.906C208.094 112.578 208.492 112.109 208.758 111.5C209.023 110.891 209.203 110.164 209.297 109.32C209.391 108.477 209.438 107.547 209.438 106.531ZM234.023 112.625V102.172C234.023 101.453 233.922 100.836 233.719 100.32C233.516 99.8047 233.195 99.4062 232.758 99.125C232.32 98.8281 231.734 98.6797 231 98.6797C230.406 98.6797 229.898 98.7812 229.477 98.9844C229.055 99.1875 228.734 99.4922 228.516 99.8984C228.297 100.305 228.188 100.82 228.188 101.445H220.289C220.289 100.273 220.547 99.1875 221.062 98.1875C221.594 97.1719 222.344 96.2891 223.312 95.5391C224.297 94.7891 225.469 94.2109 226.828 93.8047C228.203 93.3828 229.734 93.1719 231.422 93.1719C233.438 93.1719 235.234 93.5078 236.812 94.1797C238.406 94.8516 239.664 95.8594 240.586 97.2031C241.508 98.5312 241.969 100.203 241.969 102.219V112.602C241.969 114.258 242.062 115.516 242.25 116.375C242.438 117.219 242.703 117.961 243.047 118.602V119H235.125C234.75 118.219 234.469 117.266 234.281 116.141C234.109 115 234.023 113.828 234.023 112.625ZM234.984 103.508L235.031 107.727H231.539C230.805 107.727 230.18 107.828 229.664 108.031C229.164 108.234 228.758 108.516 228.445 108.875C228.148 109.219 227.93 109.609 227.789 110.047C227.664 110.484 227.602 110.945 227.602 111.43C227.602 111.898 227.711 112.32 227.93 112.695C228.164 113.055 228.477 113.336 228.867 113.539C229.258 113.742 229.695 113.844 230.18 113.844C231.055 113.844 231.797 113.68 232.406 113.352C233.031 113.008 233.508 112.594 233.836 112.109C234.164 111.625 234.328 111.172 234.328 110.75L236.062 113.984C235.75 114.609 235.391 115.242 234.984 115.883C234.594 116.523 234.102 117.117 233.508 117.664C232.93 118.195 232.219 118.633 231.375 118.977C230.531 119.305 229.508 119.469 228.305 119.469C226.742 119.469 225.305 119.148 223.992 118.508C222.695 117.867 221.656 116.977 220.875 115.836C220.094 114.68 219.703 113.352 219.703 111.852C219.703 110.539 219.938 109.367 220.406 108.336C220.891 107.305 221.617 106.43 222.586 105.711C223.555 104.992 224.789 104.445 226.289 104.07C227.789 103.695 229.555 103.508 231.586 103.508H234.984ZM259.641 111.875C259.641 111.438 259.492 111.062 259.195 110.75C258.914 110.422 258.414 110.125 257.695 109.859C256.977 109.578 255.969 109.297 254.672 109.016C253.438 108.75 252.273 108.398 251.18 107.961C250.102 107.523 249.156 106.992 248.344 106.367C247.531 105.742 246.891 105 246.422 104.141C245.969 103.281 245.742 102.297 245.742 101.188C245.742 100.109 245.969 99.0938 246.422 98.1406C246.891 97.1719 247.57 96.3203 248.461 95.5859C249.367 94.8359 250.469 94.25 251.766 93.8281C253.062 93.3906 254.539 93.1719 256.195 93.1719C258.477 93.1719 260.445 93.5234 262.102 94.2266C263.758 94.9141 265.031 95.8828 265.922 97.1328C266.828 98.3672 267.281 99.7969 267.281 101.422H259.383C259.383 100.781 259.273 100.234 259.055 99.7812C258.852 99.3281 258.516 98.9844 258.047 98.75C257.578 98.5 256.953 98.375 256.172 98.375C255.625 98.375 255.125 98.4766 254.672 98.6797C254.234 98.8828 253.883 99.1641 253.617 99.5234C253.352 99.8828 253.219 100.305 253.219 100.789C253.219 101.133 253.297 101.445 253.453 101.727C253.625 101.992 253.883 102.242 254.227 102.477C254.57 102.695 255.008 102.898 255.539 103.086C256.07 103.258 256.711 103.414 257.461 103.555C259.164 103.867 260.758 104.312 262.242 104.891C263.727 105.469 264.93 106.289 265.852 107.352C266.789 108.414 267.258 109.844 267.258 111.641C267.258 112.766 267 113.805 266.484 114.758C265.969 115.695 265.227 116.523 264.258 117.242C263.289 117.945 262.125 118.492 260.766 118.883C259.406 119.273 257.875 119.469 256.172 119.469C253.75 119.469 251.703 119.039 250.031 118.18C248.359 117.305 247.094 116.211 246.234 114.898C245.391 113.57 244.969 112.227 244.969 110.867H252.328C252.359 111.648 252.547 112.289 252.891 112.789C253.25 113.289 253.727 113.656 254.32 113.891C254.914 114.125 255.602 114.242 256.383 114.242C257.102 114.242 257.695 114.141 258.164 113.938C258.648 113.734 259.016 113.461 259.266 113.117C259.516 112.758 259.641 112.344 259.641 111.875ZM283.242 119.469C281.18 119.469 279.336 119.148 277.711 118.508C276.086 117.852 274.711 116.953 273.586 115.812C272.477 114.672 271.625 113.359 271.031 111.875C270.453 110.391 270.164 108.82 270.164 107.164V106.273C270.164 104.414 270.422 102.695 270.938 101.117C271.453 99.5234 272.219 98.1328 273.234 96.9453C274.25 95.7578 275.523 94.8359 277.055 94.1797C278.586 93.5078 280.367 93.1719 282.398 93.1719C284.195 93.1719 285.805 93.4609 287.227 94.0391C288.648 94.6172 289.852 95.4453 290.836 96.5234C291.836 97.6016 292.594 98.9062 293.109 100.438C293.641 101.969 293.906 103.688 293.906 105.594V108.805H273.188V103.859H286.195V103.25C286.211 102.406 286.062 101.688 285.75 101.094C285.453 100.5 285.016 100.047 284.438 99.7344C283.859 99.4219 283.156 99.2656 282.328 99.2656C281.469 99.2656 280.758 99.4531 280.195 99.8281C279.648 100.203 279.219 100.719 278.906 101.375C278.609 102.016 278.398 102.758 278.273 103.602C278.148 104.445 278.086 105.336 278.086 106.273V107.164C278.086 108.102 278.211 108.953 278.461 109.719C278.727 110.484 279.102 111.141 279.586 111.688C280.086 112.219 280.68 112.633 281.367 112.93C282.07 113.227 282.867 113.375 283.758 113.375C284.836 113.375 285.898 113.172 286.945 112.766C287.992 112.359 288.891 111.688 289.641 110.75L293.227 115.016C292.711 115.75 291.977 116.461 291.023 117.148C290.086 117.836 288.961 118.398 287.648 118.836C286.336 119.258 284.867 119.469 283.242 119.469ZM320.531 119H312.961L313.008 112.672H320.531C322.094 112.672 323.414 112.297 324.492 111.547C325.586 110.797 326.414 109.68 326.977 108.195C327.555 106.695 327.844 104.852 327.844 102.664V101.188C327.844 99.5469 327.68 98.1094 327.352 96.875C327.039 95.625 326.57 94.5859 325.945 93.7578C325.32 92.9141 324.539 92.2812 323.602 91.8594C322.68 91.4375 321.617 91.2266 320.414 91.2266H312.82V84.875H320.414C322.727 84.875 324.844 85.2734 326.766 86.0703C328.703 86.8516 330.375 87.9766 331.781 89.4453C333.203 90.8984 334.297 92.625 335.062 94.625C335.844 96.6094 336.234 98.8125 336.234 101.234V102.664C336.234 105.07 335.844 107.273 335.062 109.273C334.297 111.273 333.211 113 331.805 114.453C330.398 115.906 328.734 117.031 326.812 117.828C324.906 118.609 322.812 119 320.531 119ZM317.672 84.875V119H309.445V84.875H317.672ZM352.43 119.469C350.367 119.469 348.523 119.148 346.898 118.508C345.273 117.852 343.898 116.953 342.773 115.812C341.664 114.672 340.812 113.359 340.219 111.875C339.641 110.391 339.352 108.82 339.352 107.164V106.273C339.352 104.414 339.609 102.695 340.125 101.117C340.641 99.5234 341.406 98.1328 342.422 96.9453C343.438 95.7578 344.711 94.8359 346.242 94.1797C347.773 93.5078 349.555 93.1719 351.586 93.1719C353.383 93.1719 354.992 93.4609 356.414 94.0391C357.836 94.6172 359.039 95.4453 360.023 96.5234C361.023 97.6016 361.781 98.9062 362.297 100.438C362.828 101.969 363.094 103.688 363.094 105.594V108.805H342.375V103.859H355.383V103.25C355.398 102.406 355.25 101.688 354.938 101.094C354.641 100.5 354.203 100.047 353.625 99.7344C353.047 99.4219 352.344 99.2656 351.516 99.2656C350.656 99.2656 349.945 99.4531 349.383 99.8281C348.836 100.203 348.406 100.719 348.094 101.375C347.797 102.016 347.586 102.758 347.461 103.602C347.336 104.445 347.273 105.336 347.273 106.273V107.164C347.273 108.102 347.398 108.953 347.648 109.719C347.914 110.484 348.289 111.141 348.773 111.688C349.273 112.219 349.867 112.633 350.555 112.93C351.258 113.227 352.055 113.375 352.945 113.375C354.023 113.375 355.086 113.172 356.133 112.766C357.18 112.359 358.078 111.688 358.828 110.75L362.414 115.016C361.898 115.75 361.164 116.461 360.211 117.148C359.273 117.836 358.148 118.398 356.836 118.836C355.523 119.258 354.055 119.469 352.43 119.469ZM379.594 111.875C379.594 111.438 379.445 111.062 379.148 110.75C378.867 110.422 378.367 110.125 377.648 109.859C376.93 109.578 375.922 109.297 374.625 109.016C373.391 108.75 372.227 108.398 371.133 107.961C370.055 107.523 369.109 106.992 368.297 106.367C367.484 105.742 366.844 105 366.375 104.141C365.922 103.281 365.695 102.297 365.695 101.188C365.695 100.109 365.922 99.0938 366.375 98.1406C366.844 97.1719 367.523 96.3203 368.414 95.5859C369.32 94.8359 370.422 94.25 371.719 93.8281C373.016 93.3906 374.492 93.1719 376.148 93.1719C378.43 93.1719 380.398 93.5234 382.055 94.2266C383.711 94.9141 384.984 95.8828 385.875 97.1328C386.781 98.3672 387.234 99.7969 387.234 101.422H379.336C379.336 100.781 379.227 100.234 379.008 99.7812C378.805 99.3281 378.469 98.9844 378 98.75C377.531 98.5 376.906 98.375 376.125 98.375C375.578 98.375 375.078 98.4766 374.625 98.6797C374.188 98.8828 373.836 99.1641 373.57 99.5234C373.305 99.8828 373.172 100.305 373.172 100.789C373.172 101.133 373.25 101.445 373.406 101.727C373.578 101.992 373.836 102.242 374.18 102.477C374.523 102.695 374.961 102.898 375.492 103.086C376.023 103.258 376.664 103.414 377.414 103.555C379.117 103.867 380.711 104.312 382.195 104.891C383.68 105.469 384.883 106.289 385.805 107.352C386.742 108.414 387.211 109.844 387.211 111.641C387.211 112.766 386.953 113.805 386.438 114.758C385.922 115.695 385.18 116.523 384.211 117.242C383.242 117.945 382.078 118.492 380.719 118.883C379.359 119.273 377.828 119.469 376.125 119.469C373.703 119.469 371.656 119.039 369.984 118.18C368.312 117.305 367.047 116.211 366.188 114.898C365.344 113.57 364.922 112.227 364.922 110.867H372.281C372.312 111.648 372.5 112.289 372.844 112.789C373.203 113.289 373.68 113.656 374.273 113.891C374.867 114.125 375.555 114.242 376.336 114.242C377.055 114.242 377.648 114.141 378.117 113.938C378.602 113.734 378.969 113.461 379.219 113.117C379.469 112.758 379.594 112.344 379.594 111.875ZM399.258 93.6406V119H391.336V93.6406H399.258ZM390.867 87.1016C390.867 85.9766 391.273 85.0547 392.086 84.3359C392.898 83.6172 393.953 83.2578 395.25 83.2578C396.547 83.2578 397.602 83.6172 398.414 84.3359C399.227 85.0547 399.633 85.9766 399.633 87.1016C399.633 88.2266 399.227 89.1484 398.414 89.8672C397.602 90.5859 396.547 90.9453 395.25 90.9453C393.953 90.9453 392.898 90.5859 392.086 89.8672C391.273 89.1484 390.867 88.2266 390.867 87.1016ZM420.07 93.6406H427.242V118.016C427.242 120.359 426.703 122.344 425.625 123.969C424.547 125.609 423.039 126.852 421.102 127.695C419.18 128.555 416.93 128.984 414.352 128.984C413.211 128.984 412.047 128.836 410.859 128.539C409.672 128.258 408.562 127.836 407.531 127.273C406.5 126.711 405.633 126.016 404.93 125.188L408.234 120.547C408.875 121.266 409.68 121.875 410.648 122.375C411.617 122.891 412.758 123.148 414.07 123.148C415.211 123.148 416.164 122.945 416.93 122.539C417.711 122.133 418.305 121.539 418.711 120.758C419.117 119.992 419.32 119.062 419.32 117.969V99.6406L420.07 93.6406ZM403.219 106.625V106.133C403.219 104.211 403.453 102.461 403.922 100.883C404.406 99.2891 405.094 97.9219 405.984 96.7812C406.891 95.625 407.984 94.7344 409.266 94.1094C410.547 93.4844 411.992 93.1719 413.602 93.1719C415.336 93.1719 416.758 93.5078 417.867 94.1797C418.992 94.8359 419.891 95.7578 420.562 96.9453C421.25 98.1328 421.781 99.5234 422.156 101.117C422.547 102.695 422.875 104.398 423.141 106.227V106.812C422.875 108.531 422.508 110.156 422.039 111.688C421.586 113.203 420.992 114.547 420.258 115.719C419.523 116.891 418.602 117.812 417.492 118.484C416.398 119.141 415.086 119.469 413.555 119.469C411.961 119.469 410.523 119.148 409.242 118.508C407.977 117.867 406.891 116.969 405.984 115.812C405.094 114.656 404.406 113.297 403.922 111.734C403.453 110.172 403.219 108.469 403.219 106.625ZM411.117 106.133V106.625C411.117 107.578 411.203 108.461 411.375 109.273C411.562 110.086 411.844 110.805 412.219 111.43C412.594 112.039 413.055 112.516 413.602 112.859C414.164 113.203 414.82 113.375 415.57 113.375C416.711 113.375 417.633 113.133 418.336 112.648C419.039 112.164 419.547 111.477 419.859 110.586C420.172 109.695 420.305 108.648 420.258 107.445V105.594C420.289 104.562 420.219 103.656 420.047 102.875C419.875 102.078 419.602 101.414 419.227 100.883C418.867 100.352 418.383 99.9531 417.773 99.6875C417.18 99.4062 416.461 99.2656 415.617 99.2656C414.883 99.2656 414.234 99.4375 413.672 99.7812C413.109 100.125 412.641 100.609 412.266 101.234C411.891 101.844 411.602 102.57 411.398 103.414C411.211 104.242 411.117 105.148 411.117 106.133ZM439.547 99.0547V119H431.648V93.6406H439.055L439.547 99.0547ZM438.609 105.453L436.758 105.5C436.758 103.562 436.992 101.836 437.461 100.32C437.93 98.7891 438.594 97.4922 439.453 96.4297C440.312 95.3672 441.336 94.5625 442.523 94.0156C443.727 93.4531 445.062 93.1719 446.531 93.1719C447.703 93.1719 448.773 93.3438 449.742 93.6875C450.727 94.0312 451.57 94.5859 452.273 95.3516C452.992 96.1172 453.539 97.1328 453.914 98.3984C454.305 99.6484 454.5 101.195 454.5 103.039V119H446.555V103.016C446.555 102 446.414 101.227 446.133 100.695C445.852 100.148 445.445 99.7734 444.914 99.5703C444.383 99.3672 443.734 99.2656 442.969 99.2656C442.156 99.2656 441.469 99.4219 440.906 99.7344C440.344 100.047 439.891 100.484 439.547 101.047C439.219 101.594 438.977 102.242 438.82 102.992C438.68 103.742 438.609 104.562 438.609 105.453Z" fill="black"/>
<path d="M1134 0H1348C1356.28 0 1363 6.71573 1363 15V148C1363 156.284 1356.28 163 1348 163H1134V0Z" fill="black"/>
<path d="M1217.58 64.1667C1217.58 66.0281 1218.51 67.7419 1220.09 69.2434C1221.67 70.7429 1223.94 72.0619 1226.71 73.1553C1232.26 75.343 1239.93 76.6667 1248.5 76.6667C1257.07 76.6667 1264.74 75.343 1270.29 73.1553C1273.06 72.0619 1275.33 70.7429 1276.91 69.2434C1278.49 67.7419 1279.42 66.0281 1279.42 64.1667C1279.42 62.3052 1278.49 60.5914 1276.91 59.0899C1275.33 57.5904 1273.06 56.2714 1270.29 55.178C1264.74 52.9903 1257.07 51.6667 1248.5 51.6667C1239.93 51.6667 1232.26 52.9903 1226.71 55.178C1223.94 56.2714 1221.67 57.5904 1220.09 59.0899C1218.51 60.5914 1217.58 62.3052 1217.58 64.1667ZM1221.62 64.1667C1221.62 63.0283 1222.37 61.8878 1223.88 60.7921C1225.37 59.7041 1227.52 58.7293 1230.11 57.9144C1235.28 56.2864 1242.07 55.3333 1248.5 55.3333C1254.93 55.3333 1261.72 56.2864 1266.89 57.9144C1269.48 58.7293 1271.63 59.7041 1273.12 60.7921C1274.63 61.8878 1275.37 63.0283 1275.37 64.1667C1275.37 65.305 1274.63 66.4455 1273.12 67.5412C1271.63 68.6292 1269.48 69.604 1266.89 70.4189C1261.72 72.0469 1254.93 73 1248.5 73C1242.07 73 1235.28 72.0469 1230.11 70.4189C1227.52 69.604 1225.37 68.6292 1223.88 67.5412C1222.37 66.4455 1221.62 65.305 1221.62 64.1667Z" fill="white" stroke="white"/>
<path d="M1217.58 74.8333C1217.58 76.6948 1218.51 78.4086 1220.09 79.9101C1221.67 81.4096 1223.94 82.7286 1226.71 83.822C1232.26 86.0097 1239.93 87.3333 1248.5 87.3333C1257.07 87.3333 1264.74 86.0097 1270.29 83.822C1273.06 82.7286 1275.33 81.4096 1276.91 79.9101C1278.49 78.4086 1279.42 76.6948 1279.42 74.8333V64.1667C1279.42 63.6576 1279.19 63.1851 1278.8 62.8479C1278.42 62.5126 1277.91 62.3333 1277.4 62.3333C1276.88 62.3333 1276.37 62.5126 1275.99 62.8479C1275.61 63.1851 1275.37 63.6576 1275.37 64.1667V74.8333C1275.37 75.9717 1274.63 77.1122 1273.12 78.2079C1271.63 79.2959 1269.48 80.2707 1266.89 81.0856C1261.72 82.7136 1254.93 83.6667 1248.5 83.6667C1242.07 83.6667 1235.28 82.7136 1230.11 81.0856C1227.52 80.2707 1225.37 79.2959 1223.88 78.2079C1222.37 77.1122 1221.62 75.9717 1221.62 74.8333V64.1667C1221.62 63.6576 1221.39 63.1851 1221.01 62.8479C1220.63 62.5126 1220.12 62.3333 1219.6 62.3333C1219.09 62.3333 1218.58 62.5126 1218.2 62.8479C1217.81 63.1851 1217.58 63.6576 1217.58 64.1667V74.8333Z" fill="white" stroke="white"/>
<path d="M1217.58 86.8333C1217.58 88.6948 1218.51 90.4086 1220.09 91.9101C1221.67 93.4095 1223.94 94.7286 1226.71 95.8219C1232.26 98.0097 1239.93 99.3333 1248.5 99.3333C1257.07 99.3333 1264.74 98.0097 1270.29 95.8219C1273.06 94.7286 1275.33 93.4095 1276.91 91.9101C1278.49 90.4086 1279.42 88.6948 1279.42 86.8333V74.8333C1279.42 74.3243 1279.19 73.8517 1278.8 73.5146C1278.42 73.1792 1277.91 73 1277.4 73C1276.88 73 1276.37 73.1792 1275.99 73.5146C1275.61 73.8517 1275.37 74.3243 1275.37 74.8333V86.8333C1275.37 87.9717 1274.63 89.1122 1273.12 90.2079C1271.63 91.2958 1269.48 92.2707 1266.89 93.0856C1261.72 94.7136 1254.93 95.6667 1248.5 95.6667C1242.07 95.6667 1235.28 94.7136 1230.11 93.0856C1227.52 92.2707 1225.37 91.2958 1223.88 90.2079C1222.37 89.1122 1221.62 87.9717 1221.62 86.8333V74.8333C1221.62 74.3243 1221.39 73.8517 1221.01 73.5146C1220.63 73.1792 1220.12 73 1219.6 73C1219.09 73 1218.58 73.1792 1218.2 73.5146C1217.81 73.8517 1217.58 74.3243 1217.58 74.8333V86.8333Z" fill="white" stroke="white"/>
<path d="M1217.58 98.8333C1217.58 100.695 1218.51 102.409 1220.09 103.91C1221.67 105.41 1223.94 106.729 1226.71 107.822C1232.26 110.01 1239.93 111.333 1248.5 111.333C1257.07 111.333 1264.74 110.01 1270.29 107.822C1273.06 106.729 1275.33 105.41 1276.91 103.91C1278.49 102.409 1279.42 100.695 1279.42 98.8333V86.8333C1279.42 86.3243 1279.19 85.8517 1278.8 85.5146C1278.42 85.1792 1277.91 85 1277.4 85C1276.88 85 1276.37 85.1792 1275.99 85.5146C1275.61 85.8517 1275.37 86.3243 1275.37 86.8333V98.8333C1275.37 99.9717 1274.63 101.112 1273.12 102.208C1271.63 103.296 1269.48 104.271 1266.89 105.086C1261.72 106.714 1254.93 107.667 1248.5 107.667C1242.07 107.667 1235.28 106.714 1230.11 105.086C1227.52 104.271 1225.37 103.296 1223.88 102.208C1222.37 101.112 1221.62 99.9717 1221.62 98.8333V86.8333C1221.62 86.3243 1221.39 85.8517 1221.01 85.5146C1220.63 85.1792 1220.12 85 1219.6 85C1219.09 85 1218.58 85.1792 1218.2 85.5146C1217.81 85.8517 1217.58 86.3243 1217.58 86.8333V98.8333Z" fill="white" stroke="white"/>
</svg>
